<svg xmlns="http://www.w3.org/2000/svg" xmlns:xlink="http://www.w3.org/1999/xlink" width="665.674" height="544.074" viewBox="0 0 665.674 544.074">
  <defs>
    <linearGradient id="linear-gradient" x1="0.5" x2="0.5" y2="1" gradientUnits="objectBoundingBox">
      <stop offset="0" stop-color="#1a65bc"/>
      <stop offset="1" stop-color="#008ff2"/>
    </linearGradient>
    <linearGradient id="linear-gradient-2" x1="0.5" x2="0.5" y2="1" gradientUnits="objectBoundingBox">
      <stop offset="0" stop-color="#ff5a00"/>
      <stop offset="1" stop-color="#ffbc00"/>
    </linearGradient>
    <clipPath id="clip-path">
      <rect id="Rectángulo_4364" data-name="Rectángulo 4364" width="592.794" height="439.03" fill="url(#linear-gradient)"/>
    </clipPath>
    <clipPath id="clip-path-2">
      <rect id="Rectángulo_4368" data-name="Rectángulo 4368" width="119.24" height="304.592" fill="url(#linear-gradient-2)"/>
    </clipPath>
    <clipPath id="clip-path-5">
      <rect id="Rectángulo_4379" data-name="Rectángulo 4379" width="572" height="428.425" fill="none"/>
    </clipPath>
    <linearGradient id="linear-gradient-9" x1="0.5" x2="0.5" y2="1" gradientUnits="objectBoundingBox">
      <stop offset="0" stop-color="#d109c8"/>
      <stop offset="1" stop-color="#f40019"/>
    </linearGradient>
    <clipPath id="clip-path-6">
      <rect id="Rectángulo_4380" data-name="Rectángulo 4380" width="104.027" height="104.027"/>
    </clipPath>
  </defs>
  <g id="diseno-web-wordpress" transform="translate(-642.667 -148.114)">
    <g id="Grupo_9267" data-name="Grupo 9267">
      <g id="Grupo_9218" data-name="Grupo 9218" transform="translate(642.667 261.225) rotate(-11)" opacity="0.05">
        <g id="Grupo_9162" data-name="Grupo 9162" clip-path="url(#clip-path)">
          <path id="Trazado_12849" data-name="Trazado 12849" d="M525.982,5.821c39.864,7.265,84.723,56.055,59.474,149.69s-93.487,64.482-69,161.524S404.537,453.11,354.246,434.542s-58.219-35.955-146.583-4.533S58.594,387.681,75.652,323.375C95.578,248.262-73.156,230.58,38.5,115.992c87-89.28,364.7-132.547,487.48-110.17" transform="translate(0 0)" fill="url(#linear-gradient)"/>
        </g>
      </g>
      <g id="Grupo_9173" data-name="Grupo 9173" transform="translate(1143.76 224.463)" opacity="0.17">
        <g id="Grupo_9172" data-name="Grupo 9172" clip-path="url(#clip-path-2)">
          <g id="Grupo_9171" data-name="Grupo 9171">
            <g id="Grupo_9170" data-name="Grupo 9170" clip-path="url(#clip-path-2)">
              <g id="Grupo_9169" data-name="Grupo 9169" style="mix-blend-mode: multiply;isolation: isolate">
                <g id="Grupo_9168" data-name="Grupo 9168">
                  <g id="Grupo_9167" data-name="Grupo 9167" clip-path="url(#clip-path-2)">
                    <path id="Trazado_12856" data-name="Trazado 12856" d="M116.288,5.9a2.951,2.951,0,1,1,2.951-2.951A2.951,2.951,0,0,1,116.288,5.9m2.951,10.625a2.952,2.952,0,1,0-2.951,2.952,2.951,2.951,0,0,0,2.951-2.952m0,13.577a2.952,2.952,0,1,0-2.951,2.951,2.951,2.951,0,0,0,2.951-2.951m0,13.577a2.952,2.952,0,1,0-2.951,2.951,2.952,2.952,0,0,0,2.951-2.951m0,13.577a2.952,2.952,0,1,0-2.951,2.951,2.951,2.951,0,0,0,2.951-2.951m0,13.577a2.952,2.952,0,1,0-2.951,2.951,2.951,2.951,0,0,0,2.951-2.951m0,13.577a2.952,2.952,0,1,0-2.951,2.951,2.951,2.951,0,0,0,2.951-2.951m0,13.577a2.952,2.952,0,1,0-2.951,2.951,2.951,2.951,0,0,0,2.951-2.951m0,13.577a2.952,2.952,0,1,0-2.951,2.951,2.951,2.951,0,0,0,2.951-2.951m0,13.577a2.952,2.952,0,1,0-2.951,2.952,2.951,2.951,0,0,0,2.951-2.952m0,13.577a2.952,2.952,0,1,0-2.951,2.952,2.951,2.951,0,0,0,2.951-2.952m0,13.577a2.952,2.952,0,1,0-2.951,2.951,2.952,2.952,0,0,0,2.951-2.951m0,13.577a2.952,2.952,0,1,0-2.951,2.951,2.951,2.951,0,0,0,2.951-2.951m0,13.577a2.952,2.952,0,1,0-2.951,2.951,2.951,2.951,0,0,0,2.951-2.951m0,13.577a2.952,2.952,0,1,0-2.951,2.951,2.951,2.951,0,0,0,2.951-2.951m0,13.577a2.952,2.952,0,1,0-2.951,2.951,2.951,2.951,0,0,0,2.951-2.951m0,13.577a2.952,2.952,0,1,0-2.951,2.951,2.951,2.951,0,0,0,2.951-2.951m0,13.577a2.952,2.952,0,1,0-2.951,2.952,2.951,2.951,0,0,0,2.951-2.952m0,13.577a2.952,2.952,0,1,0-2.951,2.952,2.951,2.951,0,0,0,2.951-2.952m0,13.577a2.952,2.952,0,1,0-2.951,2.951,2.952,2.952,0,0,0,2.951-2.951m0,13.577a2.952,2.952,0,1,0-2.951,2.951,2.951,2.951,0,0,0,2.951-2.951m0,13.577a2.952,2.952,0,1,0-2.951,2.951,2.951,2.951,0,0,0,2.951-2.951m0,13.577a2.952,2.952,0,1,0-2.951,2.951,2.951,2.951,0,0,0,2.951-2.951M105.073,2.951A2.952,2.952,0,1,0,102.121,5.9a2.951,2.951,0,0,0,2.951-2.951m0,13.577a2.952,2.952,0,1,0-2.951,2.952,2.951,2.951,0,0,0,2.951-2.952m0,13.577a2.952,2.952,0,1,0-2.951,2.951,2.951,2.951,0,0,0,2.951-2.951m0,13.577a2.952,2.952,0,1,0-2.951,2.951,2.952,2.952,0,0,0,2.951-2.951m0,13.577a2.952,2.952,0,1,0-2.951,2.951,2.951,2.951,0,0,0,2.951-2.951m0,13.577a2.952,2.952,0,1,0-2.951,2.951,2.951,2.951,0,0,0,2.951-2.951m0,13.577a2.952,2.952,0,1,0-2.951,2.951,2.951,2.951,0,0,0,2.951-2.951m0,13.577a2.952,2.952,0,1,0-2.951,2.951,2.951,2.951,0,0,0,2.951-2.951m0,13.577a2.952,2.952,0,1,0-2.951,2.951,2.951,2.951,0,0,0,2.951-2.951m0,13.577a2.952,2.952,0,1,0-2.951,2.952,2.951,2.951,0,0,0,2.951-2.952m0,13.577a2.952,2.952,0,1,0-2.951,2.952,2.951,2.951,0,0,0,2.951-2.952m0,13.577a2.952,2.952,0,1,0-2.951,2.951,2.952,2.952,0,0,0,2.951-2.951m0,13.577a2.952,2.952,0,1,0-2.951,2.951,2.951,2.951,0,0,0,2.951-2.951m0,13.577a2.952,2.952,0,1,0-2.951,2.951,2.951,2.951,0,0,0,2.951-2.951m0,13.577a2.952,2.952,0,1,0-2.951,2.951,2.951,2.951,0,0,0,2.951-2.951m0,13.577a2.952,2.952,0,1,0-2.951,2.951,2.951,2.951,0,0,0,2.951-2.951m0,13.577a2.952,2.952,0,1,0-2.951,2.951,2.951,2.951,0,0,0,2.951-2.951m0,13.577a2.952,2.952,0,1,0-2.951,2.952,2.951,2.951,0,0,0,2.951-2.952m0,13.577a2.952,2.952,0,1,0-2.951,2.952,2.951,2.951,0,0,0,2.951-2.952m0,13.577a2.952,2.952,0,1,0-2.951,2.951,2.952,2.952,0,0,0,2.951-2.951m0,13.577a2.952,2.952,0,1,0-2.951,2.951,2.951,2.951,0,0,0,2.951-2.951m0,13.577a2.952,2.952,0,1,0-2.951,2.951,2.951,2.951,0,0,0,2.951-2.951m0,13.577a2.952,2.952,0,1,0-2.951,2.951,2.951,2.951,0,0,0,2.951-2.951M90.905,2.951A2.952,2.952,0,1,0,87.954,5.9a2.951,2.951,0,0,0,2.951-2.951m0,13.577a2.952,2.952,0,1,0-2.951,2.952,2.951,2.951,0,0,0,2.951-2.952m0,13.577a2.952,2.952,0,1,0-2.951,2.951,2.951,2.951,0,0,0,2.951-2.951m0,13.577a2.952,2.952,0,1,0-2.951,2.951,2.952,2.952,0,0,0,2.951-2.951m0,13.577a2.952,2.952,0,1,0-2.951,2.951,2.951,2.951,0,0,0,2.951-2.951m0,13.577a2.952,2.952,0,1,0-2.951,2.951,2.951,2.951,0,0,0,2.951-2.951m0,13.577a2.952,2.952,0,1,0-2.951,2.951,2.951,2.951,0,0,0,2.951-2.951m0,13.577a2.952,2.952,0,1,0-2.951,2.951,2.951,2.951,0,0,0,2.951-2.951m0,13.577a2.952,2.952,0,1,0-2.951,2.951,2.951,2.951,0,0,0,2.951-2.951m0,13.577a2.952,2.952,0,1,0-2.951,2.952,2.951,2.951,0,0,0,2.951-2.952m0,13.577a2.952,2.952,0,1,0-2.951,2.952,2.951,2.951,0,0,0,2.951-2.952m0,13.577a2.952,2.952,0,1,0-2.951,2.951,2.952,2.952,0,0,0,2.951-2.951m0,13.577a2.952,2.952,0,1,0-2.951,2.951,2.951,2.951,0,0,0,2.951-2.951m0,13.577a2.952,2.952,0,1,0-2.951,2.951,2.951,2.951,0,0,0,2.951-2.951m0,13.577a2.952,2.952,0,1,0-2.951,2.951,2.951,2.951,0,0,0,2.951-2.951m0,13.577a2.952,2.952,0,1,0-2.951,2.951,2.951,2.951,0,0,0,2.951-2.951m0,13.577a2.952,2.952,0,1,0-2.951,2.951,2.951,2.951,0,0,0,2.951-2.951m0,13.577a2.952,2.952,0,1,0-2.951,2.952,2.951,2.951,0,0,0,2.951-2.952m0,13.577a2.952,2.952,0,1,0-2.951,2.952,2.951,2.951,0,0,0,2.951-2.952m0,13.577a2.952,2.952,0,1,0-2.951,2.951,2.952,2.952,0,0,0,2.951-2.951m0,13.577a2.952,2.952,0,1,0-2.951,2.951,2.951,2.951,0,0,0,2.951-2.951m0,13.577a2.952,2.952,0,1,0-2.951,2.951,2.951,2.951,0,0,0,2.951-2.951m0,13.577a2.952,2.952,0,1,0-2.951,2.951,2.951,2.951,0,0,0,2.951-2.951M76.738,2.951A2.952,2.952,0,1,0,73.787,5.9a2.951,2.951,0,0,0,2.951-2.951m0,13.577a2.952,2.952,0,1,0-2.951,2.952,2.951,2.951,0,0,0,2.951-2.952m0,13.577a2.952,2.952,0,1,0-2.951,2.951,2.951,2.951,0,0,0,2.951-2.951m0,13.577a2.952,2.952,0,1,0-2.951,2.951,2.952,2.952,0,0,0,2.951-2.951m0,13.577a2.952,2.952,0,1,0-2.951,2.951,2.951,2.951,0,0,0,2.951-2.951m0,13.577a2.952,2.952,0,1,0-2.951,2.951,2.951,2.951,0,0,0,2.951-2.951m0,13.577a2.952,2.952,0,1,0-2.951,2.951,2.951,2.951,0,0,0,2.951-2.951m0,13.577a2.952,2.952,0,1,0-2.951,2.951,2.951,2.951,0,0,0,2.951-2.951m0,13.577a2.952,2.952,0,1,0-2.951,2.951,2.951,2.951,0,0,0,2.951-2.951m0,13.577a2.952,2.952,0,1,0-2.951,2.952,2.951,2.951,0,0,0,2.951-2.952m0,13.577a2.952,2.952,0,1,0-2.951,2.952,2.951,2.951,0,0,0,2.951-2.952m0,13.577a2.952,2.952,0,1,0-2.951,2.951,2.952,2.952,0,0,0,2.951-2.951m0,13.577a2.952,2.952,0,1,0-2.951,2.951,2.951,2.951,0,0,0,2.951-2.951m0,13.577a2.952,2.952,0,1,0-2.951,2.951,2.951,2.951,0,0,0,2.951-2.951m0,13.577a2.952,2.952,0,1,0-2.951,2.951,2.951,2.951,0,0,0,2.951-2.951m0,13.577a2.952,2.952,0,1,0-2.951,2.951,2.951,2.951,0,0,0,2.951-2.951m0,13.577a2.952,2.952,0,1,0-2.951,2.951,2.951,2.951,0,0,0,2.951-2.951m0,13.577a2.952,2.952,0,1,0-2.951,2.952,2.951,2.951,0,0,0,2.951-2.952m0,13.577a2.952,2.952,0,1,0-2.951,2.952,2.951,2.951,0,0,0,2.951-2.952m0,13.577a2.952,2.952,0,1,0-2.951,2.951,2.952,2.952,0,0,0,2.951-2.951m0,13.577a2.952,2.952,0,1,0-2.951,2.951,2.951,2.951,0,0,0,2.951-2.951m0,13.577a2.952,2.952,0,1,0-2.951,2.951,2.951,2.951,0,0,0,2.951-2.951m0,13.577a2.952,2.952,0,1,0-2.951,2.951,2.951,2.951,0,0,0,2.951-2.951M62.571,2.951A2.951,2.951,0,1,0,59.62,5.9a2.951,2.951,0,0,0,2.951-2.951m0,13.577A2.951,2.951,0,1,0,59.62,19.48a2.951,2.951,0,0,0,2.951-2.952m0,13.577a2.951,2.951,0,1,0-2.951,2.951,2.951,2.951,0,0,0,2.951-2.951m0,13.577a2.951,2.951,0,1,0-2.951,2.951,2.952,2.952,0,0,0,2.951-2.951m0,13.577A2.951,2.951,0,1,0,59.62,60.21a2.951,2.951,0,0,0,2.951-2.951m0,13.577a2.951,2.951,0,1,0-2.951,2.951,2.951,2.951,0,0,0,2.951-2.951m0,13.577a2.951,2.951,0,1,0-2.951,2.951,2.951,2.951,0,0,0,2.951-2.951m0,13.577a2.951,2.951,0,1,0-2.951,2.951,2.951,2.951,0,0,0,2.951-2.951m0,13.577a2.951,2.951,0,1,0-2.951,2.951,2.951,2.951,0,0,0,2.951-2.951m0,13.577a2.951,2.951,0,1,0-2.951,2.952,2.951,2.951,0,0,0,2.951-2.952m0,13.577a2.951,2.951,0,1,0-2.951,2.952,2.951,2.951,0,0,0,2.951-2.952m0,13.577a2.951,2.951,0,1,0-2.951,2.951,2.952,2.952,0,0,0,2.951-2.951m0,13.577a2.951,2.951,0,1,0-2.951,2.951,2.951,2.951,0,0,0,2.951-2.951m0,13.577A2.951,2.951,0,1,0,59.62,182.4a2.951,2.951,0,0,0,2.951-2.951m0,13.577a2.951,2.951,0,1,0-2.951,2.951,2.951,2.951,0,0,0,2.951-2.951m0,13.577a2.951,2.951,0,1,0-2.951,2.951,2.951,2.951,0,0,0,2.951-2.951m0,13.577a2.951,2.951,0,1,0-2.951,2.951,2.951,2.951,0,0,0,2.951-2.951m0,13.577a2.951,2.951,0,1,0-2.951,2.952,2.951,2.951,0,0,0,2.951-2.952m0,13.577a2.951,2.951,0,1,0-2.951,2.952,2.951,2.951,0,0,0,2.951-2.952m0,13.577a2.951,2.951,0,1,0-2.951,2.951,2.952,2.952,0,0,0,2.951-2.951m0,13.577a2.951,2.951,0,1,0-2.951,2.951,2.951,2.951,0,0,0,2.951-2.951m0,13.577a2.951,2.951,0,1,0-2.951,2.951,2.951,2.951,0,0,0,2.951-2.951m0,13.577a2.951,2.951,0,1,0-2.951,2.951,2.951,2.951,0,0,0,2.951-2.951M48.4,2.951A2.951,2.951,0,1,0,45.453,5.9,2.951,2.951,0,0,0,48.4,2.951m0,13.577a2.951,2.951,0,1,0-2.951,2.952A2.951,2.951,0,0,0,48.4,16.528m0,13.577a2.951,2.951,0,1,0-2.951,2.951A2.951,2.951,0,0,0,48.4,30.105m0,13.577a2.951,2.951,0,1,0-2.951,2.951A2.952,2.952,0,0,0,48.4,43.682m0,13.577a2.951,2.951,0,1,0-2.951,2.951A2.951,2.951,0,0,0,48.4,57.259m0,13.577a2.951,2.951,0,1,0-2.951,2.951A2.951,2.951,0,0,0,48.4,70.836m0,13.577a2.951,2.951,0,1,0-2.951,2.951A2.951,2.951,0,0,0,48.4,84.412m0,13.577a2.951,2.951,0,1,0-2.951,2.951A2.951,2.951,0,0,0,48.4,97.989m0,13.577a2.951,2.951,0,1,0-2.951,2.951,2.951,2.951,0,0,0,2.951-2.951m0,13.577a2.951,2.951,0,1,0-2.951,2.952,2.951,2.951,0,0,0,2.951-2.952m0,13.577a2.951,2.951,0,1,0-2.951,2.952,2.951,2.951,0,0,0,2.951-2.952m0,13.577a2.951,2.951,0,1,0-2.951,2.951A2.952,2.952,0,0,0,48.4,152.3m0,13.577a2.951,2.951,0,1,0-2.951,2.951,2.951,2.951,0,0,0,2.951-2.951m0,13.577a2.951,2.951,0,1,0-2.951,2.951A2.951,2.951,0,0,0,48.4,179.45m0,13.577a2.951,2.951,0,1,0-2.951,2.951,2.951,2.951,0,0,0,2.951-2.951m0,13.577a2.951,2.951,0,1,0-2.951,2.951A2.951,2.951,0,0,0,48.4,206.6m0,13.577a2.951,2.951,0,1,0-2.951,2.951A2.951,2.951,0,0,0,48.4,220.18m0,13.577a2.951,2.951,0,1,0-2.951,2.952,2.951,2.951,0,0,0,2.951-2.952m0,13.577a2.951,2.951,0,1,0-2.951,2.952,2.951,2.951,0,0,0,2.951-2.952m0,13.577a2.951,2.951,0,1,0-2.951,2.951,2.952,2.952,0,0,0,2.951-2.951m0,13.577a2.951,2.951,0,1,0-2.951,2.951,2.951,2.951,0,0,0,2.951-2.951m0,13.577a2.951,2.951,0,1,0-2.951,2.951,2.951,2.951,0,0,0,2.951-2.951m0,13.577a2.951,2.951,0,1,0-2.951,2.951,2.951,2.951,0,0,0,2.951-2.951M34.237,2.951A2.951,2.951,0,1,0,31.286,5.9a2.951,2.951,0,0,0,2.951-2.951m0,13.577a2.951,2.951,0,1,0-2.951,2.952,2.951,2.951,0,0,0,2.951-2.952m0,13.577a2.951,2.951,0,1,0-2.951,2.951,2.951,2.951,0,0,0,2.951-2.951m0,13.577a2.951,2.951,0,1,0-2.951,2.951,2.952,2.952,0,0,0,2.951-2.951m0,13.577a2.951,2.951,0,1,0-2.951,2.951,2.951,2.951,0,0,0,2.951-2.951m0,13.577a2.951,2.951,0,1,0-2.951,2.951,2.951,2.951,0,0,0,2.951-2.951m0,13.577a2.951,2.951,0,1,0-2.951,2.951,2.951,2.951,0,0,0,2.951-2.951m0,13.577a2.951,2.951,0,1,0-2.951,2.951,2.951,2.951,0,0,0,2.951-2.951m0,13.577a2.951,2.951,0,1,0-2.951,2.951,2.951,2.951,0,0,0,2.951-2.951m0,13.577a2.951,2.951,0,1,0-2.951,2.952,2.951,2.951,0,0,0,2.951-2.952m0,13.577a2.951,2.951,0,1,0-2.951,2.952,2.951,2.951,0,0,0,2.951-2.952m0,13.577a2.951,2.951,0,1,0-2.951,2.951,2.952,2.952,0,0,0,2.951-2.951m0,13.577a2.951,2.951,0,1,0-2.951,2.951,2.951,2.951,0,0,0,2.951-2.951m0,13.577a2.951,2.951,0,1,0-2.951,2.951,2.951,2.951,0,0,0,2.951-2.951m0,13.577a2.951,2.951,0,1,0-2.951,2.951,2.951,2.951,0,0,0,2.951-2.951m0,13.577a2.951,2.951,0,1,0-2.951,2.951,2.951,2.951,0,0,0,2.951-2.951m0,13.577a2.951,2.951,0,1,0-2.951,2.951,2.951,2.951,0,0,0,2.951-2.951m0,13.577a2.951,2.951,0,1,0-2.951,2.952,2.951,2.951,0,0,0,2.951-2.952m0,13.577a2.951,2.951,0,1,0-2.951,2.952,2.951,2.951,0,0,0,2.951-2.952m0,13.577a2.951,2.951,0,1,0-2.951,2.951,2.952,2.952,0,0,0,2.951-2.951m0,13.577a2.951,2.951,0,1,0-2.951,2.951,2.951,2.951,0,0,0,2.951-2.951m0,13.577a2.951,2.951,0,1,0-2.951,2.951,2.951,2.951,0,0,0,2.951-2.951m0,13.577a2.951,2.951,0,1,0-2.951,2.951,2.951,2.951,0,0,0,2.951-2.951M20.07,2.951A2.951,2.951,0,1,0,17.119,5.9,2.951,2.951,0,0,0,20.07,2.951m0,13.577a2.951,2.951,0,1,0-2.951,2.952,2.951,2.951,0,0,0,2.951-2.952m0,13.577a2.951,2.951,0,1,0-2.951,2.951,2.951,2.951,0,0,0,2.951-2.951m0,13.577a2.951,2.951,0,1,0-2.951,2.951,2.952,2.952,0,0,0,2.951-2.951m0,13.577a2.951,2.951,0,1,0-2.951,2.951,2.951,2.951,0,0,0,2.951-2.951m0,13.577a2.951,2.951,0,1,0-2.951,2.951,2.951,2.951,0,0,0,2.951-2.951m0,13.577a2.951,2.951,0,1,0-2.951,2.951,2.951,2.951,0,0,0,2.951-2.951m0,13.577a2.951,2.951,0,1,0-2.951,2.951,2.951,2.951,0,0,0,2.951-2.951m0,13.577a2.951,2.951,0,1,0-2.951,2.951,2.951,2.951,0,0,0,2.951-2.951m0,13.577a2.951,2.951,0,1,0-2.951,2.952,2.951,2.951,0,0,0,2.951-2.952m0,13.577a2.951,2.951,0,1,0-2.951,2.952,2.951,2.951,0,0,0,2.951-2.952m0,13.577a2.951,2.951,0,1,0-2.951,2.951A2.952,2.952,0,0,0,20.07,152.3m0,13.577a2.951,2.951,0,1,0-2.951,2.951,2.951,2.951,0,0,0,2.951-2.951m0,13.577a2.951,2.951,0,1,0-2.951,2.951,2.951,2.951,0,0,0,2.951-2.951m0,13.577a2.951,2.951,0,1,0-2.951,2.951,2.951,2.951,0,0,0,2.951-2.951m0,13.577a2.951,2.951,0,1,0-2.951,2.951A2.951,2.951,0,0,0,20.07,206.6m0,13.577a2.951,2.951,0,1,0-2.951,2.951,2.951,2.951,0,0,0,2.951-2.951m0,13.577a2.951,2.951,0,1,0-2.951,2.952,2.951,2.951,0,0,0,2.951-2.952m0,13.577a2.951,2.951,0,1,0-2.951,2.952,2.951,2.951,0,0,0,2.951-2.952m0,13.577a2.951,2.951,0,1,0-2.951,2.951,2.952,2.952,0,0,0,2.951-2.951m0,13.577a2.951,2.951,0,1,0-2.951,2.951,2.951,2.951,0,0,0,2.951-2.951m0,13.577a2.951,2.951,0,1,0-2.951,2.951,2.951,2.951,0,0,0,2.951-2.951m0,13.577a2.951,2.951,0,1,0-2.951,2.951,2.951,2.951,0,0,0,2.951-2.951M5.9,2.951A2.951,2.951,0,1,0,2.951,5.9,2.951,2.951,0,0,0,5.9,2.951m0,13.577A2.951,2.951,0,1,0,2.951,19.48,2.951,2.951,0,0,0,5.9,16.528m0,13.577a2.951,2.951,0,1,0-2.951,2.951A2.951,2.951,0,0,0,5.9,30.105m0,13.577a2.951,2.951,0,1,0-2.951,2.951A2.952,2.952,0,0,0,5.9,43.682m0,13.577A2.951,2.951,0,1,0,2.951,60.21,2.951,2.951,0,0,0,5.9,57.259m0,13.577a2.951,2.951,0,1,0-2.951,2.951A2.951,2.951,0,0,0,5.9,70.836m0,13.577a2.951,2.951,0,1,0-2.951,2.951A2.951,2.951,0,0,0,5.9,84.412m0,13.577a2.951,2.951,0,1,0-2.951,2.951A2.951,2.951,0,0,0,5.9,97.989m0,13.577a2.951,2.951,0,1,0-2.951,2.951A2.951,2.951,0,0,0,5.9,111.566m0,13.577a2.951,2.951,0,1,0-2.951,2.952A2.951,2.951,0,0,0,5.9,125.142m0,13.577a2.951,2.951,0,1,0-2.951,2.952A2.951,2.951,0,0,0,5.9,138.719m0,13.577a2.951,2.951,0,1,0-2.951,2.951A2.952,2.952,0,0,0,5.9,152.3m0,13.577a2.951,2.951,0,1,0-2.951,2.951A2.951,2.951,0,0,0,5.9,165.873m0,13.577A2.951,2.951,0,1,0,2.951,182.4,2.951,2.951,0,0,0,5.9,179.45m0,13.577a2.951,2.951,0,1,0-2.951,2.951A2.951,2.951,0,0,0,5.9,193.027m0,13.577a2.951,2.951,0,1,0-2.951,2.951A2.951,2.951,0,0,0,5.9,206.6m0,13.577a2.951,2.951,0,1,0-2.951,2.951A2.951,2.951,0,0,0,5.9,220.18m0,13.577a2.951,2.951,0,1,0-2.951,2.952A2.951,2.951,0,0,0,5.9,233.757m0,13.577a2.951,2.951,0,1,0-2.951,2.952A2.951,2.951,0,0,0,5.9,247.333m0,13.577a2.951,2.951,0,1,0-2.951,2.951A2.952,2.952,0,0,0,5.9,260.911m0,13.577a2.951,2.951,0,1,0-2.951,2.951A2.951,2.951,0,0,0,5.9,274.487m0,13.577a2.951,2.951,0,1,0-2.951,2.951A2.951,2.951,0,0,0,5.9,288.064m0,13.577a2.951,2.951,0,1,0-2.951,2.951A2.951,2.951,0,0,0,5.9,301.641" fill="url(#linear-gradient-2)"/>
                  </g>
                </g>
              </g>
            </g>
          </g>
        </g>
      </g>
      <g id="Grupo_9217" data-name="Grupo 9217" transform="translate(691 204)">
        <g id="Grupo_9216" data-name="Grupo 9216" clip-path="url(#clip-path-5)">
          <path id="Trazado_13081" data-name="Trazado 13081" d="M60.433,176.753s9.475-5.148,8.59-17.7-8.756-20.4-24.01-31.954-43.862-20.62-43.862-20.62S5.929,122.112,8.2,128.555,21.46,162.6,31.976,172.405s20.181,11.305,28.457,4.348" transform="translate(2.198 203.363)" fill="#fff"/>
          <path id="Trazado_13080" data-name="Trazado 13080" d="M181.359,157.642H16.054A16.1,16.1,0,0,1,0,141.585V16.054A16.1,16.1,0,0,1,16.054,0h165.3a16.1,16.1,0,0,1,16.054,16.054V141.585a16.1,16.1,0,0,1-16.054,16.057" fill="#fff"/>
          <path id="Trazado_13078" data-name="Trazado 13078" d="M186.612,54.2H129.378a8.284,8.284,0,0,1-8.261-8.261V10.99a8.284,8.284,0,0,1,8.261-8.261h57.233a8.286,8.286,0,0,1,8.261,8.261V45.936a8.286,8.286,0,0,1-8.261,8.261" transform="translate(231.331 5.212)" fill="#fff"/>
          <path id="Trazado_13077" data-name="Trazado 13077" d="M239.6,107.12s11.195,4.42,17.675,13.435,21.167,30.4,25.739,45.666,9.3,22.695,9.652,36.017-.018,24.758-4.31,31.274l-135.556.4-7.065-88.554s8.931-20.352,18.423-29.542,21.618-15.117,30.648-14.768Z" transform="translate(278.351 192.963)" fill="#fff"/>
          <path id="Trazado_12998" data-name="Trazado 12998" d="M429.739,319.969H40.552a16.1,16.1,0,0,1-16.057-16.057V44.065A16.1,16.1,0,0,1,40.552,28.011H429.739A16.1,16.1,0,0,1,445.8,44.065V303.912a16.1,16.1,0,0,1-16.057,16.057" transform="translate(46.785 53.5)" fill="#fff"/>
          <path id="Trazado_12999" data-name="Trazado 12999" d="M181.359,157.642H16.054A16.1,16.1,0,0,1,0,141.585V16.054A16.1,16.1,0,0,1,16.054,0h165.3a16.1,16.1,0,0,1,16.054,16.054V141.585a16.1,16.1,0,0,1-16.054,16.057" opacity="0.5" fill="url(#linear-gradient-2)"/>
          <path id="Trazado_13000" data-name="Trazado 13000" d="M112.889,118.53c2.837,4.915,2.517,10.415-.719,12.283s-8.16-.6-11-5.517-2.517-10.418.719-12.286,8.16.605,11,5.52" transform="translate(189.545 214.657)" fill="#fff"/>
          <path id="Trazado_13001" data-name="Trazado 13001" d="M43.557,186.114s-14.934-5.258-13.569-18.656,9.117-24.426,17.477-32.865S73.51,109.22,90.9,103.252c0,0-2.316,19.61-6.192,33.238s-8.721,33.2-19.433,43.891-21.717,5.733-21.717,5.733" transform="translate(57.108 197.209)" fill="#1a1a1a"/>
          <path id="Trazado_13002" data-name="Trazado 13002" d="M58.205,179.8,34.544,72.187S15.615,100.251,14.69,128.626A49.21,49.21,0,0,0,58.205,179.8" transform="translate(28 137.876)" fill="#1a1a1a"/>
          <path id="Trazado_13003" data-name="Trazado 13003" d="M101.754,78.808,68.819,58.424a2.035,2.035,0,0,0-3.1,1.83l1.894,38.685a2.038,2.038,0,0,0,3.07,1.656l8.9-5.253a2.038,2.038,0,0,1,2.788.722L95.314,118.02a2.037,2.037,0,0,0,2.788.722l7.048-4.155a2.033,2.033,0,0,0,.719-2.788L92.925,89.843a2.032,2.032,0,0,1,.719-2.788l8.072-4.764a2.033,2.033,0,0,0,.038-3.483" transform="translate(125.507 110.998)" opacity="0.5" fill="url(#linear-gradient-2)"/>
          <path id="Trazado_13004" data-name="Trazado 13004" d="M186.612,54.2H129.378a8.284,8.284,0,0,1-8.261-8.261V10.99a8.284,8.284,0,0,1,8.261-8.261h57.233a8.286,8.286,0,0,1,8.261,8.261V45.936a8.286,8.286,0,0,1-8.261,8.261" transform="translate(231.331 5.212)" opacity="0.4" fill="url(#linear-gradient-9)"/>
          <path id="Trazado_13005" data-name="Trazado 13005" d="M153.016,5.273c-1.635-2.8-4.313-2.8-5.948,0L134.494,26.8c-1.638,2.8-.32,5.1,2.922,5.1h25.262c3.248,0,4.56-2.293,2.925-5.092Z" transform="translate(255.536 6.058)" fill="#fff"/>
          <path id="Trazado_13006" data-name="Trazado 13006" d="M110.184,51.676a10.131,10.131,0,1,1-10.133-10.133,10.132,10.132,0,0,1,10.133,10.133" transform="translate(171.749 79.346)" opacity="0.4" fill="url(#linear-gradient-9)"/>
          <path id="Trazado_13007" data-name="Trazado 13007" d="M107.415,63.962a10.131,10.131,0,1,1-10.133-10.13,10.135,10.135,0,0,1,10.133,10.13" transform="translate(166.46 102.818)" opacity="0.4" fill="url(#linear-gradient-9)"/>
          <path id="Trazado_13008" data-name="Trazado 13008" d="M108.071,81.211a10.131,10.131,0,1,1-10.13-10.133,10.132,10.132,0,0,1,10.13,10.133" transform="translate(167.713 135.758)" opacity="0.4" fill="url(#linear-gradient-9)"/>
          <path id="Trazado_13009" data-name="Trazado 13009" d="M60.433,176.753s9.475-5.148,8.59-17.7-8.756-20.4-24.01-31.954-43.862-20.62-43.862-20.62S5.929,122.112,8.2,128.555,21.46,162.6,31.976,172.405s20.181,11.305,28.457,4.348" transform="translate(2.198 203.363)" opacity="0.5" fill="url(#linear-gradient-2)"/>
          <path id="Trazado_13010" data-name="Trazado 13010" d="M171.3,166.374H23.721a17.522,17.522,0,0,1-17.5-17.506V24.382a17.519,17.519,0,0,1,17.5-17.5H187.532a17.519,17.519,0,0,1,17.5,17.5V148.868a17.444,17.444,0,0,1-2.29,8.637c.16-3.1.893-5.852.893-8.637V24.382a16.123,16.123,0,0,0-16.1-16.1H23.721a16.121,16.121,0,0,0-16.1,16.1V148.868a16.12,16.12,0,0,0,16.1,16.107H171.3c.7,1.088.387,1.4,0,1.4" transform="translate(11.88 13.143)" fill="#1a1a1a"/>
          <path id="Trazado_13011" data-name="Trazado 13011" d="M395.822,148.145H6.461c0-1.4,389.361-1.4,389.361-1.4.7,1.085.387,1.4,0,1.4" transform="translate(12.34 280.28)" fill="#1a1a1a"/>
          <path id="Trazado_13012" data-name="Trazado 13012" d="M344.311,158.793c-.7-.7-.7-113.521-.7-113.521a16.325,16.325,0,0,0-16.5-16.1H77.629c0-1.4,249.484-1.4,249.484-1.4a17.722,17.722,0,0,1,17.9,17.5V158.094a.7.7,0,0,1-.7.7" transform="translate(148.27 53.042)" fill="#1a1a1a"/>
          <path id="Trazado_13013" data-name="Trazado 13013" d="M24.953,82.871c-.7-.7-.7-21.42-.7-21.42,1.4,0,1.4,20.719,1.4,20.719a.7.7,0,0,1-.7.7" transform="translate(46.327 117.37)" fill="#1a1a1a"/>
          <path id="Trazado_13014" data-name="Trazado 13014" d="M159.528,129.5H48.361c0-1.4,111.167-1.4,111.167-1.4.7,1.085.387,1.4,0,1.4" transform="translate(92.369 244.67)" fill="#1a1a1a"/>
          <path id="Trazado_13015" data-name="Trazado 13015" d="M161.312,34.149H136.053a4.222,4.222,0,0,1-3.9-1.845,4.223,4.223,0,0,1,.367-4.3L145.094,6.475a3.842,3.842,0,0,1,7.161,0l12.583,21.534a4.225,4.225,0,0,1,.372,4.3,4.225,4.225,0,0,1-3.9,1.845M148.676,5.428A2.966,2.966,0,0,0,146.3,7.182L133.731,28.713a2.917,2.917,0,0,0-.364,2.9,2.926,2.926,0,0,0,2.686,1.144h25.259a2.917,2.917,0,0,0,2.683-1.144,2.917,2.917,0,0,0-.364-2.9L151.045,7.179a2.958,2.958,0,0,0-2.369-1.752" transform="translate(251.582 7.688)" fill="#1a1a1a"/>
          <path id="Trazado_13016" data-name="Trazado 13016" d="M183.38,52.985H134.69A9.995,9.995,0,0,1,124.706,43V10.1A9.994,9.994,0,0,1,134.69.119h55.185a9.994,9.994,0,0,1,9.984,9.981V37.18c-1.4,0-1.4-27.08-1.4-27.08a8.6,8.6,0,0,0-8.587-8.582H134.69a8.59,8.59,0,0,0-8.584,8.582V43a8.6,8.6,0,0,0,8.584,8.587h48.69c.7,1.085.387,1.4,0,1.4" transform="translate(238.186 0.227)" fill="#1a1a1a"/>
          <path id="Trazado_13017" data-name="Trazado 13017" d="M62.373,183.177c-.39-.049-28.495-4.621-39.648-28.026-9.46-19.858-4.286-46.993,15.382-80.641,1.289.2,24.95,107.818,24.95,107.818-.306.771-.492.85-.684.85M38.415,76.774c-18.679,32.5-23.533,58.662-14.428,77.772,9.649,20.248,32.391,26,37.475,27.051Z" transform="translate(34.634 142.313)" fill="#1a1a1a"/>
          <path id="Trazado_13018" data-name="Trazado 13018" d="M50.869,180.154c-7.313,0-14.637-4.889-21.883-14.646,11.713,13.43,22.381,16.831,32.833,9.277,7.56-5.474,10.4-12.254,8.445-20.157-5.354-21.592-44.3-45.4-65.92-49.033.885,3.216,3.838,13.563,8.41,25.4A151.764,151.764,0,0,1,2.712,104.914c22.509,2.194,63.347,26.941,68.914,49.377,2.11,8.515-.914,15.792-8.989,21.627a19.972,19.972,0,0,1-11.768,4.237" transform="translate(5.18 200.384)" fill="#1a1a1a"/>
          <path id="Trazado_13019" data-name="Trazado 13019" d="M53.532,190.333a21.012,21.012,0,0,1-9.329-2.366c-8.663-4.272-12.725-10.822-12.071-19.456,1.775-23.472,39.558-56.972,61.331-63.886.585,3.579-7.263,70.288-31.422,83.473a17.6,17.6,0,0,1-8.509,2.235m39.311-84.026c-21.575,7.508-57.606,39.7-59.314,62.306-.608,8.014,3.192,14.1,11.291,18.1,5.869,2.9,11.436,2.948,16.549.157,21.88-11.945,30.337-71.7,31.474-80.563" transform="translate(61.241 199.832)" fill="#1a1a1a"/>
          <path id="Trazado_13020" data-name="Trazado 13020" d="M67.54,215.489c-19.808-68.809-56.4-103.761-56.768-104.1,1.33-.672,38.2,34.544,57.443,103.214-.55.879-.614.89-.675.89" transform="translate(20.574 212.723)" fill="#1a1a1a"/>
          <path id="Trazado_13021" data-name="Trazado 13021" d="M33.448,177.336c-.7-.728,1-45.986,1-45.986,1.4.055-.3,45.314-.3,45.314a.7.7,0,0,1-.7.672" transform="translate(63.562 250.876)" fill="#1a1a1a"/>
          <path id="Trazado_13022" data-name="Trazado 13022" d="M34.677,142.143c-.7-.681-1.58-30.523-1.58-30.523,1.4-.038,2.279,29.8,2.279,29.8-.687.722-.693.722-.7.722" transform="translate(63.215 213.192)" fill="#1a1a1a"/>
          <path id="Trazado_13023" data-name="Trazado 13023" d="M38.778,218.694c-12.318-72.685,31.2-108.531,31.643-108.886.442,1.44-42.445,36.814-30.953,108.074-.617.812-.655.812-.69.812" transform="translate(69.872 209.731)" fill="#1a1a1a"/>
          <path id="Trazado_13024" data-name="Trazado 13024" d="M96.051,117.413a3.051,3.051,0,0,1-2.363-1.347L80.745,94.11c-1.833-.471-10.735,4.781-10.735,4.781a2.744,2.744,0,0,1-4.126-2.229L63.989,57.977a2.737,2.737,0,0,1,4.176-2.459L101.1,75.9a2.736,2.736,0,0,1-.049,4.685l-8.075,4.758a1.342,1.342,0,0,0-.468,1.833l12.944,21.956a2.742,2.742,0,0,1-.966,3.748l-7.048,4.153a2.738,2.738,0,0,1-1.382.378M79.584,92.05A2.735,2.735,0,0,1,81.947,93.4L94.9,115.359c1.825.466,8.875-3.687,8.875-3.687a1.337,1.337,0,0,0,.471-1.827L91.3,87.889a2.75,2.75,0,0,1,.966-3.751l8.078-4.761a1.336,1.336,0,0,0,.017-2.284L67.426,56.708a1.335,1.335,0,0,0-2.037,1.2L67.283,96.6a1.321,1.321,0,0,0,.7,1.112,1.342,1.342,0,0,0,1.312-.026l8.9-5.253a2.767,2.767,0,0,1,1.385-.378" transform="translate(122.212 105.255)" fill="#1a1a1a"/>
          <path id="Trazado_13025" data-name="Trazado 13025" d="M195.469,46.989H103.144c0-1.4,92.325-1.4,92.325-1.4.7,1.085.384,1.4,0,1.4" transform="translate(197.003 87.08)" fill="#1a1a1a"/>
          <path id="Trazado_13026" data-name="Trazado 13026" d="M195.469,52.34H103.144c0-1.4,92.325-1.4,92.325-1.4.7,1.085.384,1.4,0,1.4" transform="translate(197.003 97.294)" fill="#1a1a1a"/>
          <path id="Trazado_13027" data-name="Trazado 13027" d="M99.218,66.5a10.829,10.829,0,1,1,10.831-10.828A10.839,10.839,0,0,1,99.218,66.5m0-20.259a9.43,9.43,0,1,0,9.431,9.431,9.44,9.44,0,0,0-9.431-9.431" transform="translate(168.823 85.653)" fill="#1a1a1a"/>
          <path id="Trazado_13028" data-name="Trazado 13028" d="M195.469,61.395H103.144c0-1.4,92.325-1.4,92.325-1.4.7,1.085.384,1.4,0,1.4" transform="translate(197.003 114.589)" fill="#1a1a1a"/>
          <path id="Trazado_13029" data-name="Trazado 13029" d="M195.469,66.746H103.144c0-1.4,92.325-1.4,92.325-1.4.7,1.085.384,1.4,0,1.4" transform="translate(197.003 124.804)" fill="#1a1a1a"/>
          <path id="Trazado_13030" data-name="Trazado 13030" d="M99.218,80.908a10.829,10.829,0,1,1,10.831-10.831A10.842,10.842,0,0,1,99.218,80.908m0-20.262a9.431,9.431,0,1,0,9.431,9.431,9.44,9.44,0,0,0-9.431-9.431" transform="translate(168.823 113.164)" fill="#1a1a1a"/>
          <path id="Trazado_13031" data-name="Trazado 13031" d="M195.469,75.7H103.144c0-1.4,92.325-1.4,92.325-1.4.7,1.085.384,1.4,0,1.4" transform="translate(197.003 141.921)" fill="#1a1a1a"/>
          <path id="Trazado_13032" data-name="Trazado 13032" d="M195.469,81.052H103.144c0-1.4,92.325-1.4,92.325-1.4.7,1.085.384,1.4,0,1.4" transform="translate(197.003 152.134)" fill="#1a1a1a"/>
          <path id="Trazado_13033" data-name="Trazado 13033" d="M99.218,95.216a10.829,10.829,0,1,1,10.831-10.831A10.84,10.84,0,0,1,99.218,95.216m0-20.259a9.43,9.43,0,1,0,9.431,9.428,9.437,9.437,0,0,0-9.431-9.428" transform="translate(168.823 140.492)" fill="#1a1a1a"/>
          <path id="Trazado_13034" data-name="Trazado 13034" d="M118.926,116.821H46.174c0-1.4,72.054-1.4,72.054-1.4V89.441c1.4,0,1.4,26.679,1.4,26.679a.7.7,0,0,1-.7.7" transform="translate(88.191 170.83)" fill="#1a1a1a"/>
          <path id="Trazado_13035" data-name="Trazado 13035" d="M39.524,132.467c-.7-.7-.7-54.556-.7-54.556.7-.7,86.924-.7,86.924-.7,0,1.4-85.524,1.4-85.524,1.4v53.159a.7.7,0,0,1-.7.7" transform="translate(74.151 147.473)" fill="#1a1a1a"/>
          <path id="Trazado_13036" data-name="Trazado 13036" d="M239.6,107.12s11.195,4.42,17.675,13.435,21.167,30.4,25.739,45.666,9.3,22.695,9.652,36.017-.018,24.758-4.31,31.274l-135.556.4-7.065-88.554s8.931-20.352,18.423-29.542,21.618-15.117,30.648-14.768Z" transform="translate(278.351 192.963)" opacity="0.5" fill="url(#linear-gradient-2)"/>
          <path id="Trazado_13037" data-name="Trazado 13037" d="M248.229,219.5H134.815a17.288,17.288,0,0,1-16.456-11.372l-26.9-77.676c-3.716-10.741,4.639-21.807,16.456-21.807H221.332a17.289,17.289,0,0,1,16.456,11.369l26.9,77.679c3.719,10.738-4.636,21.807-16.456,21.807" transform="translate(172.982 207.51)" fill="#1a1a1a"/>
          <path id="Trazado_13038" data-name="Trazado 13038" d="M161.19,90.983a16.743,16.743,0,0,0-3.818,7.336,17.79,17.79,0,0,0,3.879,14.573s-.512,15.894,11.113,15.685l.826,12.612s-1.283,14.3,3.093,14.754,10.924-8.7,10.924-8.7-5.023-6.649-4.86-12.6.079-10.179,5.238-17.666,5.669-12.714,4.435-15.659-4.077-9.853-4.2-11.919,1.292-8.963,1.292-8.963-2.505,2.261-2.834,4.941a31.923,31.923,0,0,0-.064,5.683l-6.2-.262Z" transform="translate(300.018 153.644)" fill="#fff"/>
          <path id="Trazado_13039" data-name="Trazado 13039" d="M207.313,148.087s-15.318-7.476-18.653-7.636-5.177-.2-5.177-.2a12.753,12.753,0,0,0-12.757-1.292s-3.62-3.047-7.269-2.54-5.718,4.708-5.718,4.708,1.8,6.361,1.475,8.948S156.9,161.3,150.283,164.4c0,0,2.654,3.4,8.951-.611a16.189,16.189,0,0,0,11.957,2.031s4.045,1.254,6.492.361a12.515,12.515,0,0,0,5.442-3.879,56.909,56.909,0,0,0,3.061-5.9s.422,10.165,12.661,9.731c0,0,4.356-1.609,7.057-7.534a16.515,16.515,0,0,0,1.408-10.514" transform="translate(287.037 260.453)" fill="#fff"/>
          <path id="Trazado_13041" data-name="Trazado 13041" d="M216.818,153.894s-17.474,8.081-26.53,2.767-9.559-13.24-9.178-19.25,5.578-13.927,7.857-17.067,2.738-6.748,1.941-11.564-3.94-8.055-4.2-11.922,2.182-10.229,2.182-10.229-3.725,3.151-3.795,6.876,0,5.014,0,5.014l-3.55.338a4.306,4.306,0,0,0-2.069-1.339c-.954-.09-3.3,1.787-3.3,1.787l-11.329-.448s-2.2-1.4-3.486-.911a18.758,18.758,0,0,0-2.069.911l-1.586.029s-.4-8.788,1.106-12.871,3-7.211,10.924-8.456,15.9-2.174,23.274,2.36c0,0,19.3-1.388,20.614,15.6,0,0-3.832,21.685-4.787,27.785s-2.366,11.881,3.658,13.939,13.319,2.82,15.2,9.681,1.08,9.8-1.743,12.126Z" transform="translate(301.132 146.189)" fill="#1a1a1a"/>
          <path id="Trazado_13042" data-name="Trazado 13042" d="M168.239,97.748l.771,11.785-7.173,1.362a6.964,6.964,0,0,1-2.535-6.571,18.111,18.111,0,0,1,2.884-7.741s4.793,2.049,6.053,1.164" transform="translate(304.147 184.473)" fill="#1a1a1a"/>
          <path id="Trazado_13043" data-name="Trazado 13043" d="M193.727,152.568l-15.274-6.958s-7.188-1.932-9.05-.876c0,0-5.561-3.6-11.748-1.909a17.946,17.946,0,0,1,5.578-5.2c3.591-2.089,10.453-4.5,14.893-3.265s13.953,5.13,15.6,18.211" transform="translate(301.118 255.973)" fill="#1a1a1a"/>
          <path id="Trazado_13044" data-name="Trazado 13044" d="M175.435,152.8H160.021s6.268-4.4,7.316-9.3c0,0,4.636,8.215,8.1,9.3" transform="translate(305.637 274.074)" fill="#1a1a1a"/>
          <path id="Trazado_13045" data-name="Trazado 13045" d="M95.342,111.765l8.1-4.758h113.8s13.267-2.156,19.133,11.884l26.554,80.135s7.534,22.075-18.074,23.85c-.175-.757,10.709-5.66,11.451-14.439s-8.229-29.167-8.229-29.167l-20.469-58.709s-7.228-8.587-13.936-8.561Z" transform="translate(182.101 204.154)" fill="#fff"/>
          <path id="Trazado_13046" data-name="Trazado 13046" d="M164.851,98.857s-2.2-1.4-3.486-.914a19.384,19.384,0,0,0-2.069.914l-1.586.026s-.4-8.785,1.109-12.871,3-7.208,10.921-8.453a58.548,58.548,0,0,1,12.065-.972c-6.056.809-12.8,2.951-14.663,8.372a34.13,34.13,0,0,0-1.941,13.91Z" transform="translate(301.132 146.192)" fill="#fff"/>
          <path id="Trazado_13047" data-name="Trazado 13047" d="M165.777,117.869c.381-6.012,5.578-13.927,7.857-17.067s2.738-6.751,1.944-11.567a15.109,15.109,0,0,0-.652-2.462c.02,0,3.541,5.951,1.213,15.49-2.121,8.7-11.425,29.033,8.486,36.6-3.515.227-6.967-.16-9.67-1.746-9.062-5.314-9.559-13.24-9.178-19.25" transform="translate(316.464 165.735)" fill="#fff"/>
          <path id="Trazado_13048" data-name="Trazado 13048" d="M162.184,96.584A25.793,25.793,0,0,0,165.1,97.6c-1.059,2.5-1.953,6.763-.346,12.746l-2.919.553a6.966,6.966,0,0,1-2.532-6.574,18.084,18.084,0,0,1,2.881-7.738" transform="translate(304.146 184.473)" fill="#fff"/>
          <path id="Trazado_13049" data-name="Trazado 13049" d="M226.476,160.464c2.855-1.548,3.923-4.845,3.358-9.385s-2.375-7.8-5.372-9.725a12.73,12.73,0,0,0-2.2-1.12,32.876,32.876,0,0,0-4.048-1.245c-2.628-.69-5.113-1.342-7-3.09a7.437,7.437,0,0,1-1.909-6.585c2.823-20.958,5.654-32.184,5.68-32.292a16.8,16.8,0,0,0-7.793-13.793,20.788,20.788,0,0,0-12.987-3.1,17.7,17.7,0,0,0-3.958-2.2c-7.452-3.152-16.91-1.286-21.883.108-2.063.573-5.034,1.6-7.054,3.835-2.505,2.762-3.21,6.638-3.591,10.406-.725,6.87-.268,7.377.009,7.677a7.754,7.754,0,0,0,2.217.25l-.02-1.376c-1.251-.512-1.3-2.022-.858-6.21.384-3.736,1.024-7.354,3.265-9.827,1.781-1.967,4.51-2.9,6.4-3.422,4.8-1.339,13.9-3.157,20.978-.169a15.5,15.5,0,0,1,3.853,2.18c.594.143,7.316-.722,12.859,3a15.463,15.463,0,0,1,7.2,12.411,327.278,327.278,0,0,0-5.683,32.344,8.771,8.771,0,0,0,2.34,7.781c2.145,1.982,4.915,2.706,7.592,3.4a32.377,32.377,0,0,1,3.879,1.193,12.335,12.335,0,0,1,1.97,1c2.634,1.7,4.228,4.636,4.74,8.736.288,2.293.37,6.364-2.331,7.93-.122,1.167.111,1.286.346,1.286" transform="translate(300.495 145.535)" fill="#1a1a1a"/>
          <path id="Trazado_13050" data-name="Trazado 13050" d="M160.4,85.417c4.676-.023,11.934-.1,11.934-.1l-.017-1.376s-7.252.081-11.919.1c-.684,1.071-.375,1.376,0,1.376" transform="translate(305.583 160.316)" fill="#1a1a1a"/>
          <path id="Trazado_13051" data-name="Trazado 13051" d="M183.334,152.251c9.105,0,18.315-4.368,18.845-4.624-.771-1.161-17.92,6.966-28,1.08-4.385-2.572-6.838-7.5-7.281-14.634-.512-8.183,3.949-14.425,6.617-18.147.34-.471.649-.911.917-1.3,5.092-7.452,1.842-15.106-.538-20.69-.358-.847-.7-1.656-1-2.418-2.069-5.322,2.182-11.305,2.226-11.369-6.425,2.942-6,8.794-5.6,11l-3.058.029c.009,1.376,3.923,1.342,3.923,1.342.591-1.1-.466-4.691,1.228-8.288a11.718,11.718,0,0,0,0,7.787c.3.774.649,1.592,1.016,2.459,2.375,5.59,5.331,12.539.666,19.375-.265.381-.567.809-.9,1.275-2.776,3.873-7.409,10.362-6.873,19.043.474,7.621,3.154,12.914,7.965,15.728a19.325,19.325,0,0,0,9.844,2.357" transform="translate(316.068 153.075)" fill="#1a1a1a"/>
          <path id="Trazado_13052" data-name="Trazado 13052" d="M236.8,157.891c-21.938-20.78-71.952-23.99-72.45-24.016.413,1.4,49.959,4.583,72,23.847a.682.682,0,0,0,.454.169" transform="translate(313.905 255.698)" fill="#1a1a1a"/>
          <path id="Trazado_13053" data-name="Trazado 13053" d="M226.535,230.6c15.237-28.64-5.779-75.991-20.5-99.5a142.954,142.954,0,0,0-11.911-16.843c-4.2-4.924-9.981-8.177-16.025-11.34,5.282,4.324,10.927,7.5,14.978,12.239a141.619,141.619,0,0,1,11.791,16.668c13.563,21.676,35.42,70,21.054,97.772.4.984.5,1.007.611,1.007" transform="translate(340.169 196.562)" fill="#1a1a1a"/>
          <path id="Trazado_13054" data-name="Trazado 13054" d="M146.153,146.488a7.211,7.211,0,0,0,1.394-2.2c10.531-24.33,23.929-37.387,42.154-41.092,1.429-.294,5.736-1.045,5.736-1.045L195.2,100.8s-4.339.751-5.776,1.048c-18.446,3.754-32.56,17.454-43.143,41.9-.256.594-.512,1.2-.765,1.793.46.937.55.954.637.954" transform="translate(277.933 192.518)" fill="#1a1a1a"/>
          <path id="Trazado_13055" data-name="Trazado 13055" d="M169.62,108.946c.742,0,1.423-.044,2-.09a81.292,81.292,0,0,0,8.066-1.085c-2.6-.882-5.922-.48-8.18-.291a14.162,14.162,0,0,1-5.561-.413c-2.453-.768-4.129-2.631-5.13-5.672A32.9,32.9,0,0,1,159.3,91.082c-1.321,3.722-1.027,6.958.212,10.744,1.147,3.5,3.117,5.642,6.021,6.559a13.76,13.76,0,0,0,4.091.562" transform="translate(302.602 173.965)" fill="#1a1a1a"/>
          <path id="Trazado_13056" data-name="Trazado 13056" d="M166.527,124.972c3.832,0,10.083-7.61,11.378-9.248-4.3,3.2-9.757,8.625-11.753,7.807-2.328-.9-2.642-9.571-2.29-14.821l-.614-11.681c-1.376.067-.762,11.669-.762,11.669-.163,2.357-.774,14.588,3.169,16.118a2.358,2.358,0,0,0,.873.154" transform="translate(310.082 185.325)" fill="#1a1a1a"/>
          <path id="Trazado_13057" data-name="Trazado 13057" d="M161.547,110.782c-4.016-7.548,2.025-13.921,2.084-13.985-1.059-.885-7.88,6.315-2.645,13.694a.684.684,0,0,0,.562.291" transform="translate(303.747 184.738)" fill="#1a1a1a"/>
          <path id="Trazado_13058" data-name="Trazado 13058" d="M186.558,180.007c3.07-24.81-10.359-64.826-10.493-65.227-1.173.841,12.161,40.577,9.807,64.471.64.757.664.757.687.757" transform="translate(336.141 219.227)" fill="#1a1a1a"/>
          <path id="Trazado_13059" data-name="Trazado 13059" d="M163.595,96.831A4.851,4.851,0,0,0,166.417,96a6.533,6.533,0,0,0,2.407-4.385c-1.376-.108-1.618,2.174-3.2,3.253a4.426,4.426,0,0,1-3.751.329c.375,1.536,1.068,1.633,1.72,1.633" transform="translate(309.178 174.978)" fill="#1a1a1a"/>
          <path id="Trazado_13061" data-name="Trazado 13061" d="M242.113,223.922a18.031,18.031,0,0,0,17.111-23.7l-26.9-81.174a17.992,17.992,0,0,0-17.111-12.359H101.8a18.42,18.42,0,0,0-3.992.437,5.835,5.835,0,0,0,3.992.94H215.213a16.628,16.628,0,0,1,15.8,11.416l26.9,81.174a16.657,16.657,0,0,1-15.8,21.886c-.69,1.068-.384,1.376,0,1.376" transform="translate(186.809 203.781)" fill="#1a1a1a"/>
          <path id="Trazado_13062" data-name="Trazado 13062" d="M135.268,220.644H248.682a18.261,18.261,0,0,0,14.893-7.543,16.555,16.555,0,0,0,2.215-15.178l-26.9-77.685a17.956,17.956,0,0,0-17.108-11.829H108.371a18.254,18.254,0,0,0-14.9,7.543,16.543,16.543,0,0,0-2.212,15.178l26.9,77.679a17.942,17.942,0,0,0,17.108,11.835m86.517-110.859a16.578,16.578,0,0,1,15.8,10.907l26.9,77.685a15.172,15.172,0,0,1-2.034,13.921,16.872,16.872,0,0,1-13.77,6.969H135.268a16.572,16.572,0,0,1-15.807-10.915L92.567,130.676A15.166,15.166,0,0,1,94.6,116.752a16.866,16.866,0,0,1,13.773-6.966Z" transform="translate(172.529 207.059)" fill="#1a1a1a"/>
          <path id="Trazado_13063" data-name="Trazado 13063" d="M162.651,165.147c9.746,0,12.161-11.422,12.161-13.048-1.382.113-2.936,11.672-12.161,11.672-2.13,0-3.507-.486-4.083-1.435-1.24-2.037.917-6.2,2.491-9.242.384-.745.742-1.435,1.024-2.043.311-.658.614-1.438.94-2.279,1.848-4.749,4.385-11.244,13.36-9.7.047.015,11.369,3.221,18.042,7.866-6.079-5.91-17.265-9.073-17.739-9.21-10.15-1.769-13.043,5.637-14.946,10.537-.317.809-.608,1.56-.905,2.2-.276.588-.626,1.263-1,1.99-1.819,3.515-4.086,7.889-2.444,10.589.847,1.388,2.619,2.1,5.261,2.1" transform="translate(299.529 262.556)" fill="#1a1a1a"/>
          <path id="Trazado_13064" data-name="Trazado 13064" d="M161.536,166.8c-3.736-1.624-6.105-2.666-6.815-4.4-.643-1.566.256-3.387,1.225-4.461,1.179-1.321,2.249-4.074,3.5-7.252,1.56-4,3.335-8.538,5.651-11.064,3.821-4.155,12.536.73,12.629.774.288-1.42-9.082-6.664-13.645-1.708-2.494,2.715-4.315,7.38-5.922,11.489-1.147,2.936-2.229,5.706-3.242,6.838-1.289,1.438-2.354,3.748-1.472,5.91.646,1.574,2.564,3.518,8.049,3.873Z" transform="translate(292.456 260.905)" fill="#1a1a1a"/>
          <path id="Trazado_13065" data-name="Trazado 13065" d="M175.817,154.154a11.731,11.731,0,0,0,1.458-.093,2.134,2.134,0,0,0-2.118-1.307c-11.183-.559-11.96-9.158-11.986-9.521-1.368.207-.466,10.284,11.913,10.9.247.012.492.023.733.023" transform="translate(310.743 273.572)" fill="#1a1a1a"/>
          <path id="Trazado_13066" data-name="Trazado 13066" d="M185.6,172.13a20.579,20.579,0,0,0,9.126-20.739c-1.787-11.265-11.922-19.028-22.587-17.355-3.46.553-8.75,2.031-14.783,8.468,6.748-5.188,11.742-6.588,15-7.1,9.9-1.612,19.343,5.7,21,16.209a19.333,19.333,0,0,1-8.139,19.255c-.064,1.155.154,1.266.381,1.266" transform="translate(300.543 255.572)" fill="#1a1a1a"/>
          <path id="Trazado_13067" data-name="Trazado 13067" d="M153.373,143.371c.678-.553,1.723-4.385,4.455-5.523,3.451-1.429,7.79,2.066,7.84,2.1.669-1.24-4.15-5.127-8.369-3.373-3.367,1.4-4.545,5.753-4.595,5.933.553.858.611.864.669.864" transform="translate(291.661 259.998)" fill="#1a1a1a"/>
          <path id="Trazado_13068" data-name="Trazado 13068" d="M153.976,148.552a8.046,8.046,0,0,0,5.791-2.7c-1.2-.71-4.382,3.079-9.277.306a3.4,3.4,0,0,0,3.486,2.392" transform="translate(287.433 278.406)" fill="#1a1a1a"/>
          <path id="Trazado_13069" data-name="Trazado 13069" d="M158.111,182.235c-10.869-42.631-1.775-68.553-1.682-68.818-1.391-.21-10.645,26.094,1.016,68.312a.689.689,0,0,0,.666.506" transform="translate(289.615 216.621)" fill="#1a1a1a"/>
          <path id="Trazado_13070" data-name="Trazado 13070" d="M118.1,121.462h60.583c.652-.914-9.926-30.823-9.926-30.823-1.3.454,8.951,29.449,8.951,29.449H118.1c-.69,1.068-.381,1.374,0,1.374" transform="translate(224.786 173.121)" fill="#1a1a1a"/>
          <path id="Trazado_13071" data-name="Trazado 13071" d="M112.837,87.422h48.716c0-1.376-48.716-1.376-48.716-1.376-.69,1.068-.381,1.376,0,1.376" transform="translate(214.734 164.346)" fill="#1a1a1a"/>
          <path id="Trazado_13072" data-name="Trazado 13072" d="M127.395,129.933c.588-.163.777-.556.652-.914L112.9,86.205c-1.3.454,13.84,43.268,13.84,43.268a.7.7,0,0,0,.652.46" transform="translate(215.491 164.65)" fill="#1a1a1a"/>
          <path id="Trazado_13073" data-name="Trazado 13073" d="M169.031,106.32c3.62,0,6.585-4.854,6.777-11.142.2-6.358-2.523-11.425-6.19-11.538-3.739-.006-6.7,4.851-6.9,11.131-.2,6.355,2.52,11.43,6.192,11.547l.119,0m.469-21.3c2.875.093,5.1,4.723,4.932,10.118-.166,5.346-2.628,9.8-5.4,9.8-2.878-.09-5.1-4.726-4.935-10.124.169-5.346,2.631-9.8,5.4-9.8" transform="translate(310.77 159.751)" fill="#1a1a1a"/>
          <path id="Trazado_13074" data-name="Trazado 13074" d="M163.162,106.321a4.076,4.076,0,0,0,3.021-1.263,9.79,9.79,0,0,0-3.134-.119c-2.805-.09-5.028-4.726-4.86-10.124.169-5.346,2.634-9.8,5.4-9.8,2.878.09,5.1,4.72,4.935,10.115a14.407,14.407,0,0,1-.928,5.142c1.938-1.161,2.229-2.779,2.3-5.1.2-6.358-2.52-11.425-6.192-11.538-3.739-.006-6.7,4.851-6.9,11.131-.2,6.355,2.523,11.43,6.192,11.544.052,0,.108.006.157.006" transform="translate(299.489 159.753)" fill="#1a1a1a"/>
          <path id="Trazado_13075" data-name="Trazado 13075" d="M161.579,89.628c.707-.466,2.2-2.118,4.589-.314-2-3.25-4.3-1.839-5.127-.8.239,1.074.39,1.117.538,1.117" transform="translate(307.585 166.735)" fill="#1a1a1a"/>
          <path id="Trazado_13076" data-name="Trazado 13076" d="M162.359,102.632c-1.606-3.809-1.606-4.772-1.507-5.063.14-.407.957-.6,1.676-.777a3.3,3.3,0,0,0,2.343-1.245c1.036-1.871.25-8.139.079-9.373-1,2.872-.655,7.563-1.286,8.7-.148.259-.87.436-1.455.573-1.013.244-2.273.547-2.66,1.673-.4,1.158.3,2.779,2.27,5.253a.684.684,0,0,0,.541.256" transform="translate(304.527 164.589)" fill="#1a1a1a"/>
          <path id="Trazado_13079" data-name="Trazado 13079" d="M130.733,131.855c3.454,5.98,3.064,12.676-.876,14.952s-9.926-.736-13.383-6.722-3.061-12.676.873-14.949,9.932.733,13.386,6.719" transform="translate(217.967 237.558)" fill="#fff"/>
          <path id="Trazado_13040" data-name="Trazado 13040" d="M130.733,131.855c3.454,5.98,3.064,12.676-.876,14.952s-9.926-.736-13.383-6.722-3.061-12.676.873-14.949,9.932.733,13.386,6.719" transform="translate(217.967 237.558)" opacity="0.5" fill="url(#linear-gradient-2)"/>
          <path id="Trazado_13060" data-name="Trazado 13060" d="M128.081,147.186a6.555,6.555,0,0,0,3.285-.855c4.26-2.465,4.77-9.591,1.126-15.9a16.906,16.906,0,0,0-6.8-6.722c-2.75-1.379-5.421-1.449-7.528-.244-4.26,2.465-4.767,9.588-1.126,15.9a16.887,16.887,0,0,0,6.8,6.722,9.509,9.509,0,0,0,4.243,1.1m-6.626-23.2a8.164,8.164,0,0,1,3.62.949,15.568,15.568,0,0,1,6.224,6.19c3.259,5.64,2.98,11.925-.623,14.009-1.7.989-3.9.882-6.219-.279a15.6,15.6,0,0,1-6.227-6.187c-3.253-5.642-2.974-11.928.626-14.009a5.1,5.1,0,0,1,2.6-.672" transform="translate(218.902 234.19)" fill="#1a1a1a"/>
        </g>
      </g>
    </g>
    <g id="Grupo_9220" data-name="Grupo 9220" transform="translate(744 241)">
      <g id="Grupo_9219" data-name="Grupo 9219" clip-path="url(#clip-path-6)">
        <path id="Trazado_13082" data-name="Trazado 13082" d="M52.022,104.028a52.013,52.013,0,1,1,52-52.023,52.241,52.241,0,0,1-52,52.023M22.906,29.791c5.828,17.316,11.451,34.024,17.231,51.2a8.728,8.728,0,0,0,.918-1.351c3.134-9.381,6.286-18.756,9.32-28.169a5.5,5.5,0,0,0-.22-3.236c-1.85-5.33-3.944-10.578-5.7-15.938-.7-2.146-1.882-2.943-3.966-2.845-.519.025-1.181.149-1.535-.108a15.62,15.62,0,0,1-1.935-1.949c.71-.453,1.418-1.288,2.128-1.29,2.689-.006,5.381.409,8.069.386,4.953-.042,9.9-.3,14.857-.43,1.346-.037,3.172-.4,3.136,1.6-.011.607-1.826,1.376-2.925,1.717a23.205,23.205,0,0,1-4.116.49l17.12,50.9a16.109,16.109,0,0,0,.866-1.733C78.3,71.887,80.288,64.69,82.6,57.6c2.563-7.864,1.278-15.027-3.057-21.894a32.63,32.63,0,0,1-3.488-6.955c-1.861-5.587.968-10.046,6.731-11.112a5.316,5.316,0,0,0,1.012-.56C71.326,6.413,57.313,2.549,41.535,6.022c-12.244,2.7-21.807,9.506-29.225,20.539,1.778,0,2.725.033,3.669-.006,3.909-.161,7.816-.426,11.724-.447.749,0,1.5.917,2.254,1.411-.68.624-1.271,1.593-2.061,1.8a30.626,30.626,0,0,1-4.99.471M53.031,55.949a11.738,11.738,0,0,0-.949,1.575Q45.542,76.469,39.009,95.418c-.508,1.464-.105,2.177,1.365,2.309,5.255.474,10.519,1.329,15.766,1.24,3.872-.066,7.722-1.379,11.813-2.181L53.031,55.949M9.509,33.208l-.839.1C3.351,46.174,3.345,59.061,9.2,71.8A45.84,45.84,0,0,0,31.063,94.271l.583-.411Zm83.649-2.762c0,.739-.034,1.479.005,2.216a42.182,42.182,0,0,1-2.658,16.332Q83.3,69.616,76.159,90.263c-.231.665-.35,1.368-.584,2.3,22.292-11.892,29.963-41.9,17.582-62.119" transform="translate(0 0)"/>
      </g>
    </g>
  </g>
</svg>
