<svg xmlns:dc="http://purl.org/dc/elements/1.1/" xmlns:cc="http://creativecommons.org/ns#" xmlns:rdf="http://www.w3.org/1999/02/22-rdf-syntax-ns#" xmlns:svg="http://www.w3.org/2000/svg" xmlns="http://www.w3.org/2000/svg" xmlns:sodipodi="http://sodipodi.sourceforge.net/DTD/sodipodi-0.dtd" xmlns:inkscape="http://www.inkscape.org/namespaces/inkscape" id="Layer_1" x="0px" y="0px" width="929.31958" height="719.50403" viewBox="0 0 929.31958 719.50403" xml:space="preserve" sodipodi:docname="aarav-infotechs-web-design-services-15d8d9ff445ff3.svg" inkscape:version="1.0.2 (e86c8708, 2021-01-15)"><metadata></metadata><defs id="defs6219"></defs><g transform="translate(260.138,290.50396)" opacity="0.109091" id="g5090" style="display:inline;fill:#d40000">	<path fill="#30c5cc" d="M 548.251,-228.893 C 636.5,-160.394 693.442,-21.599 659.002,81.049 624.564,183.898 498.745,250.601 368.621,318.501 238.497,386.401 104.068,455.297 3.49,418.952 -96.891,382.407 -163.617,240.414 -168.704,113.802 c -5.087,-126.614 51.071,-238.049 126.016,-303.354 75.139,-65.502 168.867,-84.874 275.705,-95.458 106.84,-10.584 226.788,-12.382 315.234,56.117 z" id="path5088" style="display:inline;fill:#d40000"></path></g><g id="g6214" style="display:inline" transform="translate(-39.862,-9.4960324)">	<ellipse fill="#ccccff" cx="413.39499" cy="616.85901" rx="373.53299" ry="23.634001" id="ellipse5306" style="fill:#ff5555"></ellipse>	<g id="g5314" style="fill:#ff8080">		<path fill="#ccccff" d="m 733.992,106.074 c 0,2.021 -0.821,3.864 -2.163,5.198 -1.325,1.342 -3.169,2.166 -5.19,2.166 h -157.42 c -4.044,0 -7.356,-3.313 -7.356,-7.364 0,-2.021 0.825,-3.865 2.167,-5.198 1.325,-1.343 3.168,-2.167 5.189,-2.167 h 7.44 c 2.938,-6.829 9.726,-11.602 17.625,-11.602 5.315,0 10.122,2.166 13.606,5.656 4.638,-7.865 13.189,-13.147 22.982,-13.147 2.692,0 5.284,0.407 7.729,1.147 5.123,-9.632 15.247,-16.189 26.918,-16.189 14.014,0 25.802,9.462 29.362,22.339 2.582,-1.292 5.493,-2.03 8.587,-2.03 8.737,0 16.11,5.835 18.429,13.827 h 4.741 c 4.044,-10e-4 7.354,3.312 7.354,7.364 z" id="path5308" style="fill:#ff8080"></path>		<path fill="#ccccff" d="m 247.431,102.111 c 0,2.021 -0.825,3.865 -2.166,5.198 -1.325,1.342 -3.168,2.166 -5.19,2.166 H 82.655 c -4.042,0 -7.355,-3.312 -7.355,-7.364 0,-2.022 0.824,-3.864 2.167,-5.197 1.324,-1.343 3.167,-2.167 5.189,-2.167 h 7.44 c 2.939,-6.829 9.726,-11.603 17.625,-11.603 5.317,0 10.124,2.167 13.606,5.657 4.638,-7.865 13.19,-13.147 22.983,-13.147 2.693,0 5.283,0.407 7.729,1.146 5.122,-9.631 15.246,-16.188 26.917,-16.188 14.015,0 25.803,9.461 29.362,22.338 2.582,-1.291 5.496,-2.03 8.587,-2.03 8.74,0 16.112,5.835 18.431,13.828 h 4.74 c 4.041,-0.001 7.355,3.311 7.355,7.363 z" id="path5310" style="fill:#ff8080"></path>		<path fill="#ccccff" d="m 435.593,129.36 c 0,1.766 -0.719,3.375 -1.891,4.541 -1.157,1.172 -2.768,1.892 -4.534,1.892 H 291.671 c -3.531,0 -6.425,-2.893 -6.425,-6.432 0,-1.766 0.72,-3.376 1.892,-4.54 1.157,-1.173 2.767,-1.893 4.533,-1.893 h 6.499 c 2.567,-5.964 8.495,-10.133 15.394,-10.133 4.645,0 8.844,1.892 11.885,4.941 4.05,-6.87 11.521,-11.484 20.075,-11.484 2.352,0 4.614,0.355 6.751,1.001 4.474,-8.413 13.316,-14.14 23.51,-14.14 12.241,0 22.538,8.265 25.646,19.511 2.255,-1.127 4.8,-1.773 7.5,-1.773 7.634,0 14.074,5.097 16.099,12.077 h 4.14 c 3.53,0 6.423,2.893 6.423,6.432 z" id="path5312" style="fill:#ff8080"></path>	</g>	<g id="g5370">		<g id="g5332">			<g id="g5322">				<path fill="#b6b6ef" d="m 682.21,296.142 3.871,0.712 2.058,0.375 5.82,1.068 c 0,0 73.696,-78.515 46.938,-115.553 -8.236,-11.402 -27.908,-7.915 -33.336,34.749 -5.036,39.545 -25.351,78.649 -25.351,78.649 z" id="path5316" style="fill:#d35f5f"></path>				<g id="g5320" style="fill:#c83737">					<path fill="#9b9bdd" d="m 686.081,296.854 2.058,0.375 c 14.245,-19.837 24.249,-42.338 30.303,-58.35 7.191,-19.012 10.529,-33.242 10.559,-33.384 0.122,-0.508 -0.194,-1.016 -0.706,-1.132 -0.508,-0.12 -1.016,0.197 -1.131,0.703 -0.033,0.144 -3.35,14.272 -10.499,33.173 -6.091,16.092 -16.184,38.775 -30.584,58.615 z" id="path5318" style="fill:#c83737"></path>				</g>			</g>			<g id="g5330">				<path fill="#ccccff" d="m 647.558,335.09 4.618,3.344 2.451,1.772 6.942,5.021 c 0,0 145.219,-56.719 133.312,-121.793 -3.666,-20.031 -31.549,-27.725 -65.212,24.651 -31.206,48.551 -82.111,87.005 -82.111,87.005 z" id="path5324" style="fill:#d35f5f"></path>				<g id="g5328" style="display:inline;fill:#c83737">					<path fill="#b6b6ef" d="m 652.176,338.434 2.451,1.772 c 30.973,-17.054 58.061,-40.233 75.945,-57.389 21.238,-20.371 34.461,-36.891 34.59,-37.056 0.475,-0.59 0.376,-1.451 -0.215,-1.919 -0.59,-0.472 -1.45,-0.375 -1.922,0.214 -0.132,0.167 -13.262,16.569 -34.382,36.816 -17.973,17.24 -45.295,40.598 -76.467,57.562 z" id="path5326" style="fill:#c83737"></path>				</g>			</g>		</g>		<g id="g5350" style="display:inline">			<g id="g5340" style="display:inline">				<path fill="#b6b6ef" d="m 154.481,441.324 -3.874,0.712 -2.055,0.378 -5.822,1.068 c 0,0 -73.697,-78.515 -46.938,-115.554 8.237,-11.402 27.911,-7.914 33.338,34.748 5.035,39.547 25.351,78.648 25.351,78.648 z" id="path5334" style="fill:#d35f5f"></path>				<g id="g5338" style="display:inline;fill:#c83737">					<path fill="#9b9bdd" d="m 150.607,442.036 -2.055,0.378 c -14.246,-19.837 -24.248,-42.34 -30.304,-58.35 -7.19,-19.013 -10.528,-33.243 -10.56,-33.385 -0.119,-0.508 0.197,-1.016 0.706,-1.131 0.508,-0.12 1.016,0.196 1.134,0.703 0.032,0.143 3.347,14.272 10.499,33.173 6.088,16.092 16.183,38.774 30.58,58.612 z" id="path5336" style="fill:#c83737"></path>				</g>			</g>			<g id="g5348" style="display:inline">				<path fill="#ccccff" d="m 189.134,480.274 -4.62,3.344 -2.451,1.772 -6.943,5.021 c 0,0 -145.216,-56.722 -133.31,-121.791 3.664,-20.033 31.549,-27.728 65.212,24.649 31.206,48.553 82.112,87.005 82.112,87.005 z" id="path5342" style="fill:#d35f5f"></path>				<g id="g5346" style="display:inline">					<path fill="#b6b6ef" d="m 184.514,483.618 -2.451,1.772 C 151.091,468.335 124.004,445.156 106.119,427.999 84.882,407.628 71.656,391.111 71.528,390.944 c -0.473,-0.588 -0.376,-1.45 0.217,-1.917 0.589,-0.474 1.451,-0.376 1.92,0.213 0.132,0.166 13.263,16.569 34.381,36.816 17.975,17.24 45.297,40.598 76.468,57.562 z" id="path5344" style="fill:#c83737"></path>				</g>			</g>		</g>		<g id="g5368" style="fill:#c83737">			<g id="g5354" style="fill:#c83737">				<path fill="#b6b6ef" d="M 305.751,256.112 C 279.539,235.187 258.44,215.737 242.948,198.2 222.71,175.288 212.059,155.579 211.295,139.618 c -0.051,-1.058 0.766,-1.957 1.824,-2.008 1.058,-0.05 1.957,0.766 2.008,1.824 1.337,27.9 35.825,69.023 99.786,119.025 z" id="path5352" style="fill:#c83737"></path>			</g>			<path fill="#ccccff" d="m 226.609,176.272 c 0,0 -10.837,11.816 -30.866,-8.049 0.001,0 21.718,-13.382 30.866,8.049 z" id="path5356" style="fill:#c83737"></path>			<path fill="#ccccff" d="m 236.406,187.048 c 0,0 -12.4,-10.163 6.318,-31.266 0,0 14.569,20.938 -6.318,31.266 z" id="path5358" style="fill:#c83737"></path>			<path fill="#ccccff" d="m 215.498,151.321 c 0,0 -15.079,-5.446 -4.466,-31.583 0,0 20.716,14.883 4.466,31.583 z" id="path5360" style="fill:#c83737"></path>			<path fill="#ccccff" d="m 255.445,209.333 c 0,0 -6.201,14.784 -31.769,2.866 0,0 15.911,-19.939 31.769,-2.866 z" id="path5362" style="fill:#c83737"></path>			<path fill="#ccccff" d="m 267.087,218.799 c 0,0 -13.971,-7.864 0.817,-31.887 0,0 17.971,18.104 -0.817,31.887 z" id="path5364" style="fill:#c83737"></path>			<path fill="#ccccff" d="m 281.739,233.343 c 0,0 -5.92,14.901 -31.708,3.469 -0.001,0 15.529,-20.237 31.708,-3.469 z" id="path5366" style="fill:#c83737"></path>		</g>	</g>	<g id="g5468">		<g id="g5466">			<g id="g5438">				<path fill="#161642" d="m 710.165,249.266 v 309.85 c 0,12.775 -10.354,23.129 -23.127,23.129 H 158.98 c -12.774,0 -23.128,-10.354 -23.128,-23.129 v -309.85 c 0,-12.774 10.354,-23.129 23.128,-23.129 h 528.058 c 12.774,0 23.127,10.355 23.127,23.129 z" id="path5372"></path>				<path fill="#ffffff" d="m 684.657,265.018 v 278.347 c 0,8.19 -6.638,14.832 -14.828,14.832 H 176.196 c -3.459,0 -6.641,-1.186 -9.167,-3.173 -0.667,-0.527 -1.293,-1.114 -1.862,-1.747 -2.368,-2.621 -3.802,-6.102 -3.802,-9.912 V 265.018 c 0,-8.19 6.645,-14.832 14.832,-14.832 H 669.83 c 2.74,0 5.299,0.741 7.501,2.038 2.067,1.217 3.818,2.921 5.088,4.954 1.42,2.274 2.238,4.963 2.238,7.84 z" id="path5374"></path>				<g id="g5418">					<g id="g5392">						<g id="g5390">							<g id="g5388">								<rect x="268.62701" y="310.45401" fill="#e3e3ff" width="316.98401" height="179.856" id="rect5376"></rect>								<rect x="268.62701" y="310.45401" fill="#2a3554" width="316.98401" height="15.442" id="rect5378"></rect>								<g id="g5386">									<circle fill="#5f46f1" cx="552.58899" cy="318.17401" r="3.2030001" id="circle5380"></circle>									<circle fill="#5f46f1" cx="562.97101" cy="318.17401" r="3.204" id="circle5382"></circle>									<circle fill="#8380f9" cx="572.85101" cy="318.17401" r="3.204" id="circle5384"></circle>								</g>							</g>						</g>					</g>					<g id="g5404">						<g id="g5398">							<g id="g5396">								<path fill="#2a3554" d="m 304.282,479.108 c -0.417,0 -0.755,-0.338 -0.755,-0.755 V 336.33 c 0,-0.418 0.338,-0.756 0.755,-0.756 0.418,0 0.756,0.338 0.756,0.756 v 142.024 c 0,0.417 -0.338,0.754 -0.756,0.754 z" id="path5394"></path>							</g>						</g>						<circle fill="#2a3554" cx="304.24701" cy="336.673" r="2.2920001" id="circle5400"></circle>						<circle fill="#2a3554" cx="304.24701" cy="478.35199" r="2.2920001" id="circle5402"></circle>					</g>					<g id="g5414">						<g id="g5408">							<path fill="#2a3554" d="m 549.42,479.108 c -0.417,0 -0.755,-0.338 -0.755,-0.755 V 336.33 c 0,-0.418 0.338,-0.756 0.755,-0.756 0.419,0 0.755,0.338 0.755,0.756 v 142.024 c 0,0.417 -0.336,0.754 -0.755,0.754 z" id="path5406"></path>						</g>						<circle fill="#2a3554" cx="549.38599" cy="336.673" r="2.2920001" id="circle5410"></circle>						<circle fill="#2a3554" cx="549.38599" cy="478.35199" r="2.2920001" id="circle5412"></circle>					</g>					<text transform="translate(331.9155,451.502)" fill="#2a3554" font-family="Montserrat-Black" font-size="128.389px" id="text5416">Aa</text>				</g>				<g id="g5424">					<rect x="196.082" y="310.45401" fill="#e3e3ff" width="39.485001" height="178.89" id="rect5420"></rect>					<rect x="196.082" y="310.45401" fill="#2a3554" width="39.485001" height="11.872" id="rect5422"></rect>				</g>				<g id="g5430">					<rect x="612.46899" y="401.336" fill="#e3e3ff" width="39.481998" height="88.008003" id="rect5426"></rect>					<rect x="612.46899" y="401.336" fill="#2a3554" width="39.481998" height="12.627" id="rect5428"></rect>				</g>				<g id="g5436">					<rect x="613.37201" y="311.07199" fill="#e3e3ff" width="39.481998" height="51.297001" id="rect5432"></rect>					<rect x="613.37201" y="311.07199" fill="#2a3554" width="39.481998" height="12.626" id="rect5434"></rect>				</g>			</g>			<path fill="#2a3554" d="m 763.813,569.862 v 1.981 c 0,9.855 -3.162,18.972 -8.527,26.384 -8.184,11.321 -21.505,18.688 -36.544,18.688 H 127.276 c -15.04,0 -28.36,-7.366 -36.544,-18.688 -5.366,-7.412 -8.528,-16.528 -8.528,-26.384 v -1.981 z" id="path5440" style="display:inline"></path>			<path fill="#445279" d="m 346.616,569.862 v 0.453 c 0,3.569 2.39,6.463 5.338,6.463 h 139.147 c 2.948,0 5.337,-2.894 5.337,-6.463 v -0.453 z" id="path5442"></path>			<g id="g5460">				<path fill="#e3e3ff" d="m 684.653,265.018 v 16.421 H 161.365 v -16.421 c 0,-3.162 0.983,-6.085 2.674,-8.487 2.675,-3.836 7.123,-6.344 12.157,-6.344 h 493.632 c 5.035,0 9.483,2.508 12.15,6.344 1.69,2.402 2.675,5.324 2.675,8.487 z" id="path5444"></path>				<g id="g5452">					<circle fill="#5f46f1" cx="640.04999" cy="268.05801" r="4.2519999" id="circle5446"></circle>					<circle fill="#5f46f1" cx="653.83197" cy="268.05801" r="4.2519999" id="circle5448"></circle>					<circle fill="#8380f9" cx="666.94702" cy="268.05801" r="4.2529998" id="circle5450"></circle>				</g>				<path fill="#ffffff" d="M 558.26,270.765 H 280.691 c -0.701,0 -1.273,-0.574 -1.273,-1.274 v -5.755 c 0,-0.701 0.573,-1.273 1.273,-1.273 H 558.26 c 0.701,0 1.274,0.572 1.274,1.273 v 5.755 c 10e-4,0.7 -0.573,1.274 -1.274,1.274 z" id="path5454"></path>				<path fill="#2a3554" d="m 212.528,266.614 v 3.076 c 0,0.884 -0.956,1.435 -1.72,0.993 l -2.665,-1.538 -2.665,-1.538 c -0.764,-0.442 -0.764,-1.545 0,-1.987 l 2.665,-1.538 2.665,-1.54 c 0.764,-0.44 1.72,0.112 1.72,0.994 z" id="path5456"></path>				<path fill="#2a3554" d="m 226.396,266.614 v 3.076 c 0,0.884 0.956,1.435 1.721,0.993 l 2.665,-1.538 2.665,-1.538 c 0.764,-0.442 0.764,-1.545 0,-1.987 l -2.665,-1.538 -2.665,-1.54 c -0.765,-0.44 -1.721,0.112 -1.721,0.994 z" id="path5458"></path>			</g>			<path fill="#ccccff" d="M 681.979,256.53 H 164.04 c 2.675,-3.836 7.123,-6.344 12.157,-6.344 h 493.632 c 5.035,0 9.484,2.508 12.15,6.344 z" id="path5462"></path>			<path fill="#e3e3ff" d="M 577.53,534.422 H 261.421 c -6.181,0 -11.191,-5.01 -11.191,-11.191 v 0 c 0,-6.181 5.01,-11.191 11.191,-11.191 H 577.53 c 6.181,0 11.19,5.011 11.19,11.191 v 0 c 10e-4,6.181 -5.009,11.191 -11.19,11.191 z" id="path5464"></path>		</g>	</g>	<g id="g5644">		<ellipse fill="#ccccff" cx="645.11603" cy="700.69598" rx="79.617996" ry="10.444" id="ellipse5470" style="fill:#de8787"></ellipse>		<g id="g5634" style="display:inline">			<g id="g5632" style="display:inline">				<g id="g5484" style="display:inline;fill:#c83737">					<g id="g5474" style="fill:#c83737">						<path fill="#5f46f1" d="M 707.884,586.725 H 587.719 c 1.985,-12.055 11.547,-20.813 22.692,-20.778 l 37.391,0.11 37.39,-0.11 c 11.144,-0.035 20.706,8.723 22.692,20.778 z" id="path5472" style="fill:#c83737"></path>					</g>					<g id="g5482" style="fill:#c83737">						<rect x="597.16901" y="585" fill="#5f46f1" width="6.5489998" height="112.036" id="rect5476" style="fill:#c83737"></rect>						<rect x="691.88501" y="585" fill="#5f46f1" width="6.5489998" height="112.036" id="rect5478" style="fill:#c83737"></rect>						<rect x="603.71802" y="616.39301" fill="#3c3cc2" width="88.167" height="6.3140001" id="rect5480" style="fill:#c83737"></rect>					</g>				</g>				<g id="g5630" style="display:inline">					<path fill="#8380f9" d="m 618.381,435.905 c 0,0 -20.067,26.765 -22.738,50.106 -1.887,16.485 22.738,41.12 22.738,41.12 l 8.482,-4.221 -8.456,-19.067 c -3.009,-9.285 -6.714,-12.955 -3.977,-22.324 l 6.125,-13.205 c 0.713,-9.905 -0.299,-20.886 -2.174,-32.409 z" id="path5486" style="fill:#aa0000"></path>					<path fill="#8380f9" d="m 681.623,435.503 c 0,0 19.808,28.538 21.446,51.975 1.415,20.206 -22.831,39.654 -22.831,39.654 l -7.003,-3.485 9.697,-19.264 c 3.007,-9.285 4.438,-14.886 0.336,-24.989 l -5.206,-11.079 z" id="path5488" style="fill:#aa0000"></path>					<g id="g5500" style="display:inline;fill:#aa0000">						<path fill="#8380f9" d="m 684.373,541.767 c -17.607,4.762 -75.21,-2.582 -75.21,-2.582 l 13.304,-42.324 -1.688,-25.156 -0.22,-3.409 -2.178,-32.382 c 13.928,-5.773 22.539,-8.019 36.146,-7.04 9.338,0.677 18.472,2.989 27.097,6.637 l -6.195,60.168 z" id="path5490" style="fill:#aa0000"></path>						<g id="g5494" style="display:inline;fill:#aa0000">							<path fill="#5f46f1" d="m 636.867,448.664 c 12.707,-1.488 24.527,-10.215 25.065,-10.615 0.314,-0.236 0.379,-0.68 0.145,-0.994 -0.235,-0.313 -0.679,-0.376 -0.994,-0.144 -0.138,0.104 -14.05,10.365 -27.429,10.548 -0.397,0.002 -0.706,0.328 -0.699,0.719 0.005,0.393 0.326,0.706 0.719,0.699 1.066,-0.014 2.134,-0.088 3.193,-0.213 z" id="path5492" style="fill:#aa0000"></path>						</g>						<g id="g5498" style="display:inline;fill:#aa0000">							<path fill="#5f46f1" d="m 643.677,492.063 c 12.054,-4.285 21.632,-15.427 22.066,-15.938 0.254,-0.299 0.218,-0.747 -0.082,-1.001 -0.297,-0.254 -0.745,-0.216 -0.999,0.082 -0.112,0.131 -11.385,13.237 -24.387,16.398 -0.388,0.089 -0.615,0.476 -0.522,0.855 0.092,0.381 0.477,0.615 0.857,0.522 1.037,-0.251 2.061,-0.561 3.067,-0.918 z" id="path5496" style="fill:#aa0000"></path>						</g>					</g>					<g id="g5510">						<polygon fill="#f8ae81" points="658.081,684.961 658.914,677.207 647.104,675.391 648.143,684.733 " id="polygon5502"></polygon>						<g id="g5508">							<path fill="#161642" d="m 645.546,527.245 c 0,0 -25.734,-1.413 -34.45,5.72 -8.717,7.13 -6.965,27.596 1.915,33.183 8.88,5.587 24.017,16.567 24.017,16.567 l 9.629,95.721 12.723,0.434 c 0,0 11.723,-96.154 5.781,-114.775 -5.945,-18.623 -19.615,-36.85 -19.615,-36.85 z" id="path5504"></path>							<path fill="#2a3554" d="m 660.553,674.119 c 0.692,2.236 0.362,4.402 -0.328,6.556 l -14.639,-0.325 c -0.517,-2.132 -0.594,-4.273 -0.285,-6.42 z" id="path5506"></path>						</g>					</g>					<g id="g5518">						<path fill="#ffffff" d="m 681.963,526.523 h -67.532 l -6.24,-36.497 c -0.541,-3.16 1.895,-6.048 5.101,-6.048 h 69.813 c 3.205,0 5.643,2.888 5.102,6.048 z" id="path5512" style="display:inline"></path>						<path fill="#ccccff" d="m 675.916,534.458 h -55.372 c -3.376,0 -6.113,-2.736 -6.113,-6.113 v -1.821 h 67.599 v 1.821 c -10e-4,3.377 -2.738,6.113 -6.114,6.113 z" id="path5514" style="display:inline;fill:#c83737"></path>						<circle fill="#ccccff" cx="648.349" cy="506.75601" r="5.8660002" id="circle5516"></circle>					</g>					<g id="g5528">						<polygon fill="#f8ae81" points="611.609,660.119 615.243,651.862 604.895,649.11 602.692,658.358 " id="polygon5520"></polygon>						<g id="g5526">							<path fill="#2a3554" d="m 658.62,525.661 c 0,0 -17.233,-5.943 -27.338,6.537 -10.104,12.48 -27.021,117.836 -27.021,117.836 l 11.597,4.786 37.283,-93.566 c 0,0 30.361,17.326 34.038,-7.305 2.912,-19.491 -28.559,-28.288 -28.559,-28.288 z" id="path5522"></path>							<path fill="#445279" d="m 618.486,649.991 c -0.043,2.415 -1.064,4.435 -2.437,6.324 l -14.255,-5.04 c 0.182,-2.259 0.795,-4.384 1.792,-6.391 z" id="path5524"></path>						</g>					</g>					<g id="g5546">						<path fill="#8380f9" d="m 609.498,656.836 c 0,0 -5.404,-2.743 -6.997,-3.057 -1.591,-0.313 -14.731,9.011 -18.454,8.92 -6.751,-0.167 -8.912,9.747 -5.074,11.096 11.097,3.902 31.638,3.419 31.638,3.419 0,0 4.563,-12.332 4.647,-16.493 0.086,-4.163 -2.828,-2.018 -5.76,-3.885 z" id="path5530" style="fill:#550000"></path>						<g id="g5544">							<g id="g5534">								<path fill="#ffffff" d="m 597.693,665.646 c 0.192,0.087 0.422,0.101 0.635,0.02 0.414,-0.16 0.615,-0.62 0.448,-1.027 -0.055,-0.137 -1.385,-3.356 -3.572,-4.852 -2.908,-1.993 -5.588,-0.61 -5.7,-0.549 -0.391,0.206 -0.534,0.688 -0.317,1.073 0.214,0.386 0.705,0.529 1.096,0.321 0.074,-0.036 1.935,-0.963 4.007,0.451 1.782,1.221 2.978,4.104 2.988,4.134 0.08,0.196 0.232,0.345 0.415,0.429 z" id="path5532"></path>							</g>							<g id="g5538">								<path fill="#ffffff" d="m 600.387,663.775 c 0.193,0.088 0.423,0.103 0.635,0.021 0.414,-0.16 0.615,-0.62 0.45,-1.027 -0.056,-0.137 -1.386,-3.356 -3.572,-4.854 -2.911,-1.993 -5.588,-0.608 -5.701,-0.548 -0.391,0.206 -0.532,0.688 -0.318,1.073 0.215,0.386 0.706,0.529 1.099,0.321 0.072,-0.037 1.934,-0.963 4.004,0.452 1.789,1.225 2.978,4.102 2.989,4.132 0.08,0.198 0.231,0.348 0.414,0.43 z" id="path5536"></path>							</g>							<g id="g5542">								<path fill="#ffffff" d="m 594.208,666.978 c 0.194,0.087 0.422,0.101 0.637,0.02 0.413,-0.16 0.614,-0.62 0.448,-1.028 -0.057,-0.136 -1.385,-3.357 -3.573,-4.853 -2.909,-1.995 -5.587,-0.608 -5.699,-0.549 -0.391,0.208 -0.534,0.689 -0.319,1.075 0.216,0.384 0.707,0.529 1.098,0.321 0.072,-0.038 1.934,-0.963 4.006,0.452 1.789,1.223 2.977,4.102 2.988,4.131 0.079,0.198 0.232,0.347 0.414,0.431 z" id="path5540"></path>							</g>						</g>					</g>					<g id="g5564">						<path fill="#8380f9" d="m 651.978,684.343 c 0,0 5.531,-1.68 7.078,-1.71 1.546,-0.029 12.339,10.908 15.851,11.44 6.371,0.965 6.754,10.634 2.929,11.264 -11.073,1.824 -30.286,-2.039 -30.286,-2.039 0,0 -2.236,-12.341 -1.627,-16.265 0.609,-3.922 2.99,-1.424 6.055,-2.69 z" id="path5548" style="fill:#550000"></path>						<g id="g5562">							<g id="g5552">								<path fill="#ffffff" d="m 661.603,694.574 c -0.197,0.052 -0.414,0.027 -0.6,-0.085 -0.363,-0.22 -0.476,-0.685 -0.251,-1.041 0.074,-0.118 1.858,-2.923 4.16,-3.963 3.063,-1.39 5.349,0.354 5.444,0.431 0.333,0.258 0.389,0.734 0.122,1.062 -0.268,0.326 -0.752,0.379 -1.085,0.118 -0.063,-0.046 -1.655,-1.225 -3.835,-0.238 -1.876,0.849 -3.479,3.359 -3.494,3.385 -0.109,0.17 -0.277,0.285 -0.461,0.331 z" id="path5550"></path>							</g>							<g id="g5556">								<path fill="#ffffff" d="m 659.382,692.372 c -0.196,0.051 -0.412,0.026 -0.6,-0.087 -0.361,-0.218 -0.476,-0.685 -0.251,-1.039 0.074,-0.119 1.858,-2.923 4.161,-3.965 3.064,-1.391 5.35,0.355 5.444,0.43 0.334,0.261 0.387,0.735 0.122,1.063 -0.267,0.326 -0.751,0.381 -1.084,0.12 -0.063,-0.046 -1.659,-1.227 -3.839,-0.241 -1.883,0.854 -3.476,3.36 -3.492,3.385 -0.109,0.173 -0.275,0.288 -0.461,0.334 z" id="path5554"></path>							</g>							<g id="g5560">								<path fill="#ffffff" d="m 664.655,696.404 c -0.198,0.052 -0.415,0.027 -0.601,-0.087 -0.362,-0.218 -0.475,-0.685 -0.254,-1.039 0.076,-0.118 1.86,-2.923 4.162,-3.965 3.066,-1.39 5.352,0.354 5.447,0.431 0.333,0.26 0.386,0.735 0.118,1.062 -0.264,0.326 -0.748,0.381 -1.081,0.12 -0.063,-0.048 -1.659,-1.227 -3.839,-0.24 -1.883,0.853 -3.479,3.359 -3.491,3.385 -0.108,0.172 -0.276,0.286 -0.461,0.333 z" id="path5558"></path>							</g>						</g>					</g>					<g id="g5628">						<path fill="#2a3554" d="m 667,375.545 c 0,0 8.19,12.687 7.293,25.901 -0.896,13.212 1.207,28.466 -10.617,27.795 -11.821,-0.67 -32.912,4.74 -39.615,-5.551 C 617.358,413.399 667,375.545 667,375.545 Z" id="path5566"></path>						<path fill="#161642" d="m 670.036,398.871 c 0,0 2.124,19.154 -6.964,24.427 -9.087,5.273 -15.665,-0.613 -15.665,-0.613 0,0 19.157,-26.698 22.629,-23.814 z" id="path5568"></path>						<g id="g5618">							<g id="g5580">								<path fill="#fa8465" d="m 632.284,398.782 c 0,0 -3.263,-4.352 -5.689,-0.752 -2.427,3.597 1.004,14.225 6.946,11.63 z" id="path5570"></path>								<g id="g5574">									<path fill="#fa664d" d="m 632.243,406.376 c -0.22,0 -0.422,-0.146 -0.483,-0.366 -0.922,-3.281 -4.321,-4.611 -4.354,-4.625 -0.26,-0.099 -0.39,-0.387 -0.292,-0.646 0.099,-0.259 0.389,-0.391 0.647,-0.291 0.158,0.059 3.904,1.513 4.965,5.29 0.073,0.268 -0.081,0.544 -0.349,0.62 -0.043,0.013 -0.09,0.018 -0.134,0.018 z" id="path5572"></path>								</g>								<g id="g5578">									<path fill="#fa664d" d="m 628.813,404.724 c -0.095,0 -0.188,-0.026 -0.272,-0.081 -0.232,-0.149 -0.3,-0.46 -0.15,-0.693 0.025,-0.038 0.627,-0.955 1.885,-1.519 0.252,-0.114 0.549,0 0.663,0.254 0.113,0.252 0,0.549 -0.253,0.662 -0.974,0.436 -1.445,1.14 -1.45,1.146 -0.097,0.15 -0.259,0.231 -0.423,0.231 z" id="path5576"></path>								</g>							</g>							<g id="g5592">								<path fill="#fa8465" d="m 665.915,398.782 c 0,0 3.265,-4.352 5.691,-0.752 2.427,3.597 -1.006,14.225 -6.944,11.63 z" id="path5582"></path>								<g id="g5586">									<path fill="#fa664d" d="m 665.958,406.376 c 0.221,0 0.422,-0.146 0.484,-0.366 0.92,-3.281 4.319,-4.611 4.353,-4.625 0.257,-0.099 0.389,-0.387 0.29,-0.646 -0.099,-0.259 -0.386,-0.391 -0.646,-0.291 -0.158,0.059 -3.903,1.513 -4.966,5.29 -0.072,0.268 0.083,0.544 0.35,0.62 0.046,0.013 0.088,0.018 0.135,0.018 z" id="path5584"></path>								</g>								<g id="g5590">									<path fill="#fa664d" d="m 669.391,404.724 c 0.092,0 0.185,-0.026 0.27,-0.081 0.234,-0.149 0.301,-0.46 0.148,-0.693 -0.022,-0.038 -0.623,-0.955 -1.883,-1.519 -0.25,-0.114 -0.55,0 -0.662,0.254 -0.112,0.252 0,0.549 0.254,0.662 0.973,0.436 1.444,1.14 1.447,1.146 0.098,0.15 0.261,0.231 0.426,0.231 z" id="path5588"></path>								</g>							</g>							<path fill="#f8ae81" d="m 657.133,418.673 v 10.57 c 0,0 -3.152,5.381 -7.414,5.747 -4.257,0.372 -8.04,-4.633 -8.04,-4.633 v -10.94 z" id="path5594"></path>							<path fill="#fa8465" d="m 657.133,418.673 v 4.69 c -2.86,3.174 -7.938,4.299 -15.453,3.188 l -10e-4,-7.135 z" id="path5596"></path>							<path fill="#f8ae81" d="m 668.275,391.532 c -0.194,4.107 -0.587,9.243 -1.371,13.35 -0.195,1.023 -0.416,1.988 -0.663,2.853 -2.223,7.786 -7.786,21.141 -23.359,15.578 -6.878,-2.455 -10.066,-10.116 -11.488,-17.908 -0.964,-5.292 -1.109,-10.639 -1.038,-14.459 0.074,-3.9 2.204,-7.467 5.597,-9.389 9.193,-5.212 18.893,-3.268 25.279,-0.813 4.432,1.701 7.268,6.054 7.043,10.788 z" id="path5598"></path>							<ellipse fill="#2a3554" cx="640.94299" cy="400.414" rx="1.299" ry="2.043" id="ellipse5600"></ellipse>							<ellipse fill="#2a3554" cx="656.97998" cy="400.414" rx="1.299" ry="2.043" id="ellipse5602"></ellipse>							<path fill="#2a3554" d="m 638.371,393.616 c 1.078,-0.303 3.256,-0.824 5.555,-0.831 0.604,-0.001 1.068,0.536 0.961,1.132 l -0.002,0.015 c -0.086,0.475 -0.511,0.811 -0.994,0.788 -1.563,-0.073 -5.668,0.148 -7.606,0.933 -0.04,-0.336 0.159,-0.705 0.441,-1.033 0.428,-0.497 1.013,-0.825 1.645,-1.004 z" id="path5604"></path>							<path fill="#2a3554" d="m 659.354,393.659 c -1.079,-0.305 -3.258,-0.826 -5.556,-0.832 -0.604,-0.002 -1.066,0.535 -0.96,1.131 l 0.002,0.015 c 0.086,0.477 0.512,0.813 0.992,0.79 1.565,-0.073 5.669,0.146 7.607,0.931 0.04,-0.336 -0.16,-0.705 -0.441,-1.031 -0.428,-0.498 -1.015,-0.826 -1.644,-1.004 z" id="path5606"></path>							<g id="g5610">								<path fill="#fa8465" d="m 649.273,408.722 c -0.384,0 -0.77,-0.067 -1.091,-0.261 -0.294,-0.175 -0.658,-0.53 -0.729,-1.225 -0.191,-1.845 0.28,-7.63 0.3,-7.874 0.023,-0.277 0.266,-0.483 0.542,-0.46 0.275,0.022 0.481,0.266 0.459,0.541 -0.005,0.059 -0.485,5.937 -0.304,7.689 0.033,0.305 0.156,0.412 0.247,0.468 0.472,0.282 1.56,-0.007 2.015,-0.191 0.256,-0.105 0.549,0.02 0.653,0.275 0.105,0.257 -0.019,0.549 -0.273,0.654 -0.13,0.054 -0.971,0.384 -1.819,0.384 z" id="path5608"></path>							</g>							<path fill="#ffffff" d="m 642.898,411.892 c 0.379,1.911 1.643,5.425 5.891,5.425 4.26,0 5.455,-3.212 5.866,-5.425 z" id="path5612"></path>							<g id="g5616">								<path fill="#fa8465" d="m 648.729,420.244 c -1.226,0 -2.309,-0.659 -2.354,-0.688 -0.236,-0.146 -0.309,-0.455 -0.163,-0.69 0.145,-0.236 0.453,-0.309 0.69,-0.165 v 0 c 0.009,0.007 0.892,0.541 1.827,0.541 1.012,0 1.92,-0.538 1.929,-0.543 0.237,-0.142 0.546,-0.065 0.689,0.172 0.142,0.237 0.065,0.544 -0.17,0.688 -0.047,0.028 -1.148,0.685 -2.448,0.685 z" id="path5614"></path>							</g>						</g>						<path fill="#2a3554" d="m 670.297,390.715 c -0.161,0.457 -0.609,0.75 -1.21,0.925 0.046,1.108 -0.072,2.44 -0.182,3.716 -0.62,7.256 -2.45,8.53 -2.862,6.737 -0.273,-1.192 -0.257,-8.026 -0.125,-10.255 -1.435,-0.095 -2.661,-0.333 -2.661,-0.333 l -1.681,-7.045 -0.59,6.957 c -2.524,0.879 -8.415,-0.527 -8.415,-0.527 l -1.976,-6.944 -1.222,6.681 c -3.786,1.845 -8.52,0.616 -8.52,0.616 l -1.087,-7.206 -2.511,7.206 c 0,0 -8.079,2.898 -8.166,0 -0.055,-1.687 1.182,-6.435 2.224,-10.114 1.14,-4.013 3.774,-7.402 7.339,-9.313 10.021,-5.38 20.616,-2.518 24.252,-0.347 7.709,4.6 7.393,19.246 7.393,19.246 z" id="path5620"></path>						<path fill="#2a3554" d="m 633.541,376.083 c 0,0 -6.651,7.908 -8.839,22.036 -2.189,14.127 -5.218,24.565 3.294,29.229 9.215,5.048 8.416,-5.306 8.283,-8.12 -0.132,-2.814 -7.97,-10.507 -2.738,-32.171 1.688,-6.994 0,-10.974 0,-10.974 z" id="path5622"></path>						<path fill="#161642" d="m 631.985,405.276 c 0,0 0,0.006 0,0.016 0.004,0.104 0.011,0.666 0.05,1.545 0.021,0.546 0.055,1.209 0.105,1.962 0.313,4.76 1.238,12.98 3.957,15.831 1.075,1.128 3.144,1.693 5.582,1.922 v -3.74 c -2.568,-1.219 -4.571,-3.22 -6.123,-5.685 -0.959,-2.078 -2.611,-5.329 -3.386,-10.441 z" id="path5624"></path>						<path fill="#ffffff" d="m 668.395,409.898 c 0,0.65 -0.524,1.176 -1.178,1.176 -0.649,0 -1.174,-0.525 -1.174,-1.176 0,-0.649 0.524,-1.177 1.174,-1.177 0.653,10e-4 1.178,0.528 1.178,1.177 z" id="path5626"></path>					</g>				</g>			</g>		</g>		<g id="g5638">			<path fill="#5f46f1" d="m 623.852,464.529 c -0.035,0.067 -1.521,2.905 -3.073,7.175 l -0.22,-3.409 c 1.063,-2.583 1.926,-4.221 2.026,-4.423 0.187,-0.354 0.625,-0.474 0.963,-0.304 0.354,0.185 0.472,0.623 0.304,0.961 z" id="path5636"></path>		</g>		<g id="g5642">			<path fill="#5f46f1" d="m 674.765,464.529 c 0.033,0.067 1.569,2.986 3.123,7.258 l 0.326,-3.155 c -1.065,-2.584 -2.084,-4.558 -2.183,-4.76 -0.188,-0.354 -0.627,-0.474 -0.963,-0.304 -0.356,0.185 -0.474,0.623 -0.303,0.961 z" id="path5640"></path>		</g>	</g>	<g id="g5888" style="display:inline">		<g id="g5652">			<path fill="#f8ae81" d="m 321.087,482.102 c 2.301,4.395 4.528,8.188 6.68,11.449 15.994,24.216 27.888,19.026 34.289,11.556 2.268,-2.647 3.899,-5.426 5.065,-7.996 1.905,-4.209 2.575,-7.857 2.792,-9.448 l -2.97,0.69 c -3.519,1.619 -9.352,3.842 -13.678,3.169 -0.552,-0.089 -1.082,-0.223 -1.574,-0.409 -3.878,-1.472 -9.158,-9.096 -12.729,-14.9 -2.341,-3.802 -3.951,-6.824 -3.951,-6.824 z" id="path5646"></path>			<path fill="#fa8465" d="m 321.087,482.102 c 2.301,4.395 4.528,8.188 6.68,11.449 4.543,-4.98 8.657,-12.316 11.195,-17.339 -2.341,-3.802 -3.951,-6.824 -3.951,-6.824 z" id="path5648"></path>			<path fill="#fa8465" d="m 349.811,492.324 c 0,0 3.227,9.889 17.31,4.786 1.905,-4.209 2.575,-7.857 2.792,-9.448 l -2.97,0.69 c -3.519,1.619 -9.352,3.842 -13.678,3.169 z" id="path5650"></path>		</g>		<g id="g5660">			<path fill="#f8ae81" d="m 239.118,502.408 c 0.018,2.746 -0.073,5.565 -0.316,8.33 -0.004,0.062 -0.013,0.127 -0.017,0.188 -0.052,0.563 -0.122,1.124 -0.213,1.683 -2.25,13.877 -16.369,25.822 -19.469,7.912 -0.412,-2.375 -0.586,-4.993 -0.569,-7.758 0,-0.613 0.013,-1.233 0.03,-1.863 0.052,-1.68 0.169,-3.409 0.334,-5.159 0.07,-0.746 0.147,-1.497 0.239,-2.254 0.096,-0.824 0.199,-1.653 0.316,-2.482 0.283,-2.067 0.622,-4.139 0.995,-6.18 1.241,-6.756 2.874,-13.181 4.233,-18.036 1.48,-5.253 2.631,-8.671 2.631,-8.671 l 9.903,12.185 c 0,0 0.8,4.441 1.359,10.775 0.044,0.483 0.083,0.978 0.126,1.49 0.195,2.496 0.343,5.236 0.399,8.085 0.005,0.147 0.005,0.296 0.009,0.442 0.006,0.436 0.01,0.875 0.01,1.313 z" id="path5654"></path>			<path fill="#fa8465" d="m 224.683,476.789 c 2.938,5.404 7.777,12.569 14.017,15.778 -0.041,-0.51 -0.08,-1.006 -0.125,-1.491 -0.562,-6.332 -1.356,-10.775 -1.356,-10.775 l -9.905,-12.181 c 0,0 -1.154,3.415 -2.631,8.669 z" id="path5656"></path>			<path fill="#fa8465" d="m 239.118,502.408 c 0.018,2.746 -0.073,5.565 -0.316,8.33 -6.123,0.582 -14.785,0.904 -20.238,0.162 0.052,-1.68 0.169,-3.409 0.334,-5.159 0.07,-0.746 0.147,-1.497 0.239,-2.254 l 19.964,-2.834 c 0.005,0.147 0.005,0.296 0.009,0.442 0.004,0.436 0.008,0.875 0.008,1.313 z" id="path5658"></path>		</g>		<path fill="#8380f9" d="m 323.648,438.71 c 0,0 14.333,25.313 16.692,33.883 0,0 -9.794,16.368 -18.681,18.182 l -3.292,-11.163 c 0,-0.001 -0.348,-34.932 5.281,-40.902 z" id="path5662" style="display:inline;fill:#aa0000"></path>		<g id="g5680" style="fill:#aa0000">			<path fill="#8380f9" d="m 292.162,425.706 31.486,13.004 -13.93,107.904 c 0,0 -43.342,6.087 -65.753,0 V 438.71 l 30.611,-13.687 z" id="path5664" style="fill:#aa0000"></path>			<g id="g5678" style="fill:#aa0000">				<g id="g5668" style="fill:#aa0000">					<path fill="#5f46f1" d="m 298.588,484.512 c -5.282,5.505 -12.702,10.685 -23.033,13.664 -0.399,0.113 -0.807,-0.16 -0.857,-0.57 0,-0.005 0,-0.01 -10e-4,-0.015 -0.04,-0.328 0.168,-0.634 0.485,-0.726 10.069,-2.902 17.292,-7.95 22.436,-13.312 0.384,-0.4 1.058,-0.184 1.146,0.364 10e-4,0.007 0.002,0.012 0.003,0.019 0.032,0.21 -0.032,0.422 -0.179,0.576 z" id="path5666" style="fill:#aa0000"></path>				</g>				<g id="g5672" style="fill:#aa0000">					<path fill="#5f46f1" d="m 298.327,474.245 v 0.028 c 0,0.108 -0.027,0.216 -0.083,0.312 -0.349,0.604 -0.746,1.234 -1.202,1.883 -2.495,3.553 -7.207,8.257 -15.502,10.499 -0.053,0.016 -0.109,0.021 -0.161,0.021 -0.273,0 -0.523,-0.181 -0.598,-0.456 -0.09,-0.328 0.105,-0.67 0.436,-0.759 8.93,-2.415 13.609,-7.803 15.949,-11.844 0.321,-0.553 1.163,-0.324 1.161,0.316 z" id="path5670" style="fill:#aa0000"></path>				</g>				<g id="g5676" style="fill:#aa0000">					<path fill="#5f46f1" d="m 297.197,446.182 c 0,0.005 0,0.008 0,0.013 -0.024,0.368 -0.368,0.64 -0.73,0.569 -7.508,-1.463 -13.412,-4.808 -17.347,-7.673 -5.418,-3.952 -8.29,-7.771 -8.411,-7.931 -0.205,-0.272 -0.148,-0.663 0.127,-0.867 0.272,-0.204 0.662,-0.146 0.866,0.127 0.098,0.135 9.157,12.037 24.998,15.125 0.304,0.059 0.518,0.328 0.497,0.637 z" id="path5674" style="fill:#aa0000"></path>				</g>			</g>		</g>		<g id="g5724" style="display:inline">			<g id="g5710" style="display:inline">				<g id="g5708">					<path fill="#f8ae81" d="m 345.563,615.276 -3.377,-17.374 h 11.539 l 2.819,16.404 c 0,10e-4 -4.623,3.011 -10.981,0.97 z" id="path5682" style="display:inline"></path>					<path fill="#8380f9" d="m 353.468,615.1 c 0,0 2.563,-3.363 4.567,-3.194 2.003,0.168 17.331,12.642 22.618,13.719 5.288,1.076 4.215,4.966 3.221,6.948 -0.994,1.984 -42.266,-1.234 -42.266,-1.234 0,0 -0.993,-12.308 0.399,-16.052 1.392,-3.745 7.306,0.655 11.461,-0.187 z" id="path5684" style="display:inline;fill:#550000"></path>					<g id="g5706">						<g id="g5692">							<g id="g5690">								<g id="g5688">									<path fill="#ffffff" d="m 361.919,623.778 c -0.188,0.055 -0.397,0.035 -0.58,-0.072 -0.354,-0.208 -0.472,-0.661 -0.266,-1.016 0.069,-0.117 1.72,-2.91 3.911,-3.983 2.914,-1.429 5.156,0.234 5.25,0.306 0.327,0.247 0.39,0.714 0.142,1.04 -0.248,0.326 -0.714,0.391 -1.041,0.142 -0.061,-0.046 -1.623,-1.169 -3.699,-0.153 -1.785,0.874 -3.267,3.375 -3.282,3.399 -0.1,0.171 -0.258,0.287 -0.435,0.337 z" id="path5686"></path>								</g>							</g>						</g>						<g id="g5700">							<g id="g5698">								<g id="g5696">									<path fill="#ffffff" d="m 359.73,621.663 c -0.188,0.055 -0.396,0.035 -0.58,-0.072 -0.354,-0.208 -0.473,-0.661 -0.267,-1.016 0.069,-0.118 1.72,-2.911 3.911,-3.983 2.917,-1.433 5.156,0.232 5.25,0.306 0.327,0.247 0.389,0.714 0.141,1.04 -0.248,0.324 -0.713,0.389 -1.041,0.141 -0.061,-0.045 -1.622,-1.168 -3.698,-0.154 -1.792,0.879 -3.267,3.375 -3.281,3.401 -0.099,0.171 -0.258,0.286 -0.435,0.337 z" id="path5694"></path>								</g>							</g>						</g>						<g id="g5704">							<path fill="#ffffff" d="m 364.899,625.51 c -0.188,0.055 -0.397,0.035 -0.58,-0.072 -0.354,-0.208 -0.473,-0.661 -0.266,-1.016 0.069,-0.119 1.719,-2.912 3.912,-3.983 2.916,-1.433 5.155,0.232 5.249,0.305 0.327,0.248 0.39,0.713 0.142,1.039 -0.249,0.326 -0.715,0.391 -1.042,0.142 -0.061,-0.044 -1.623,-1.167 -3.698,-0.153 -1.793,0.879 -3.267,3.375 -3.282,3.401 -0.099,0.171 -0.258,0.286 -0.435,0.337 z" id="path5702"></path>						</g>					</g>				</g>			</g>			<g id="g5716" style="display:inline">				<g id="g5714">					<path fill="#161642" d="m 293.205,535.794 c 0,0 19.749,-49.035 32.024,-47.102 19.003,2.994 31.717,61.362 30.16,115.81 l -13.041,0.744 c 0,0 -14.597,-51.291 -17.213,-64.734 0,0 -10.06,34.909 -32.715,30.049 -16.773,-3.597 -5.839,-20.763 0.785,-34.767 z" id="path5712"></path>				</g>			</g>			<g id="g5720" style="display:inline">				<path fill="#2a3554" d="m 343.895,602.999 1.606,-0.29 c -0.035,-0.191 -3.507,-19.28 -7.711,-38.568 -8.578,-39.346 -11.801,-41.187 -12.86,-41.794 -0.882,-0.503 -1.609,-0.372 -2.064,-0.175 -2.15,0.937 -3.229,5.528 -4.862,12.478 -2.639,11.234 -6.252,26.618 -16.229,33.062 l 0.885,1.369 c 10.529,-6.799 14.229,-22.554 16.932,-34.057 1.298,-5.526 2.524,-10.746 3.925,-11.354 0.081,-0.036 0.247,-0.108 0.604,0.096 4.413,2.521 14.243,48.767 19.774,79.233 z" id="path5718"></path>			</g>			<polygon fill="#2a3554" points="341.265,607.168 356.976,606.065 356.681,600.508 340.694,601.847 340.388,601.873 " id="polygon5722"></polygon>		</g>		<g id="g5764" style="display:inline" transform="matrix(1.0057,0,0,1.0057,-1.3610576,-3.6145097)">			<g id="g5762" style="display:inline">				<path fill="#2a3554" d="m 298.259,570.809 c 0,0 -22.96,4.41 -53.402,-1.068 2.506,-12.581 8.197,-22.457 17.478,-31.232 l 41.056,2.966 c 2.585,9.687 0.708,19.471 -5.132,29.334 z" id="path5726" style="display:inline"></path>				<g id="g5752" style="display:inline">					<g id="g5750" style="display:inline">						<path fill="#8380f9" d="m 304.809,611.391 c 0,0 5.438,-1.193 6.923,-1.1 1.485,0.098 10.944,11.673 14.267,12.477 6.026,1.461 5.611,10.953 1.891,11.26 -10.76,0.887 -28.862,-4.45 -28.862,-4.45 0,0 -1.144,-12.255 -0.241,-16.043 0.901,-3.79 2.983,-1.153 6.022,-2.144 z" id="path5728" style="fill:#550000"></path>						<path fill="#f8ae81" d="m 301.611,612.217 -4,-15.61 h 11.531 l 2.588,15.062 c 0,-10e-4 -3.765,2.587 -10.119,0.548 z" id="path5730"></path>						<g id="g5748">							<g id="g5738">								<g id="g5736">									<g id="g5734">										<path fill="#ffffff" d="m 313.205,622.183 c -0.193,0.033 -0.399,-0.01 -0.568,-0.135 -0.33,-0.242 -0.4,-0.708 -0.157,-1.037 0.082,-0.11 2.019,-2.709 4.311,-3.542 3.047,-1.11 5.098,0.782 5.183,0.863 0.298,0.281 0.311,0.751 0.03,1.048 -0.28,0.299 -0.751,0.312 -1.048,0.03 -0.056,-0.052 -1.487,-1.334 -3.659,-0.546 -1.867,0.679 -3.605,3.005 -3.623,3.028 -0.118,0.161 -0.289,0.258 -0.469,0.291 z" id="path5732"></path>									</g>								</g>							</g>							<g id="g5742">								<path fill="#ffffff" d="m 311.255,619.847 c -0.192,0.034 -0.398,-0.009 -0.568,-0.134 -0.33,-0.244 -0.4,-0.707 -0.157,-1.037 0.082,-0.11 2.019,-2.709 4.311,-3.541 3.051,-1.113 5.098,0.779 5.184,0.862 0.297,0.28 0.312,0.75 0.029,1.049 -0.281,0.296 -0.751,0.312 -1.048,0.027 -0.056,-0.051 -1.488,-1.333 -3.658,-0.546 -1.875,0.684 -3.605,3.006 -3.623,3.029 -0.119,0.161 -0.288,0.259 -0.47,0.291 z" id="path5740"></path>							</g>							<g id="g5746">								<path fill="#ffffff" d="m 315.981,624.219 c -0.193,0.035 -0.398,-0.008 -0.568,-0.133 -0.33,-0.244 -0.4,-0.708 -0.157,-1.037 0.082,-0.111 2.019,-2.709 4.31,-3.542 3.051,-1.112 5.099,0.78 5.185,0.862 0.298,0.28 0.311,0.75 0.029,1.049 -0.28,0.297 -0.751,0.31 -1.048,0.027 -0.056,-0.051 -1.489,-1.332 -3.659,-0.545 -1.875,0.683 -3.605,3.005 -3.623,3.028 -0.118,0.161 -0.288,0.26 -0.469,0.291 z" id="path5744"></path>							</g>						</g>					</g>				</g>				<path fill="#161642" d="m 247.661,570.56 c 2.917,0.626 5.621,0.593 8.123,0.06 0.822,-0.174 1.622,-0.402 2.394,-0.68 15.283,-5.424 22.198,-29.429 22.198,-29.429 2.617,13.443 17.754,64.7 17.754,64.7 l 2.361,-0.31 1.626,-0.218 8.934,-1.176 c 1.757,-52.709 -11.578,-111.823 -30.577,-114.815 -12.273,-1.938 -32.024,47.102 -32.024,47.102 -6.627,14.004 -17.556,31.17 -0.789,34.766 z" id="path5754"></path>				<g id="g5758" style="display:inline">					<path fill="#2a3554" d="m 255.784,570.619 c 0.822,-0.174 1.622,-0.402 2.394,-0.68 5.593,-9.005 8.51,-21.6 10.86,-31.742 1.866,-8.068 3.629,-15.686 5.947,-16.991 0.354,-0.196 0.702,-0.228 1.104,-0.093 1.969,0.644 6.61,7.172 15.533,43.63 4.254,17.378 7.78,34.696 8.868,40.158 0.223,1.109 0.349,1.736 0.354,1.768 l 1.6,-0.311 c -0.006,-0.031 -0.12,-0.619 -0.327,-1.675 -1.071,-5.364 -4.613,-22.813 -8.906,-40.326 -10.479,-42.787 -15.093,-44.299 -16.61,-44.8 -0.849,-0.272 -1.659,-0.194 -2.416,0.229 -2.943,1.658 -4.538,8.529 -6.736,18.041 -2.464,10.627 -5.56,23.999 -11.665,32.792 z" id="path5756"></path>				</g>				<polygon fill="#2a3554" points="297.416,607.915 312.946,605.295 312.114,599.792 296.332,602.674 296.029,602.729 " id="polygon5760" style="display:inline"></polygon>			</g>		</g>		<path fill="#8380f9" d="m 243.965,438.71 -20.419,29.577 c 0,0 9.068,17.093 17.955,18.884 0,0 9.25,-16.164 10.338,-24.415 1.086,-8.252 -4.684,-23.336 -7.874,-24.046 z" id="path5766" style="display:inline;fill:#aa0000"></path>		<g id="g5796" style="display:inline">			<g id="g5794" style="display:inline">				<g id="g5792">					<g id="g5778" style="display:inline">													<rect x="171.349" y="468.33099" transform="matrix(0.9947,-0.1029,0.1029,0.9947,-48.1561,32.227)" fill="#5f46f1" width="233.92599" height="29.16" id="rect5768" style="display:inline;fill:#ffcc00"></rect>						<g id="g5776" style="display:inline;fill:#d4aa00">															<rect x="170.466" y="473.39801" transform="matrix(0.9947,-0.1029,0.1029,0.9947,-47.2802,32.0894)" fill="#3c3cc2" width="233.925" height="1.942" id="rect5770" style="fill:#d4aa00"></rect>															<rect x="171.349" y="481.939" transform="matrix(0.9947,-0.1029,0.1029,0.9947,-48.1581,32.2285)" fill="#3c3cc2" width="233.925" height="1.944" id="rect5772" style="fill:#d4aa00"></rect>															<rect x="172.233" y="490.478" transform="matrix(0.9947,-0.1029,0.1029,0.9947,-49.0282,32.3619)" fill="#3c3cc2" width="233.924" height="1.944" id="rect5774" style="fill:#d4aa00"></rect>						</g>					</g>					<g id="g5782" style="display:inline">													<rect x="171.938" y="479.73599" transform="matrix(0.9947,-0.1029,0.1029,0.9947,-49.9208,20.9462)" fill="#2a3554" width="12.233" height="29.16" id="rect5780"></rect>					</g>					<path fill="#8380f9" d="m 170.47,480.442 -3.463,0.357 c -8.01,0.828 -13.831,7.993 -13.002,16.003 v 0 c 0.828,8.011 7.993,13.83 16.003,13.003 l 3.462,-0.358 z" id="path5784" style="fill:#ff8080"></path>					<g id="g5790">						<polygon fill="#f8ae81" points="439.724,468.228 428.273,474.077 423.813,476.355 406.154,485.379 403.153,456.375 423.519,462.975 427.756,464.347 " id="polygon5786"></polygon>						<path fill="#2a3554" d="m 428.273,474.077 c -0.534,-1.22 -0.961,-2.721 -1.149,-4.547 -0.226,-2.18 0.089,-3.88 0.632,-5.184 l 11.968,3.881 z" id="path5788"></path>					</g>				</g>			</g>		</g>		<g id="g5802">			<g id="g5800">				<path fill="#f8ae81" d="m 370.593,490.285 c 0,0 -0.678,-3.274 -2.44,-7.859 -0.895,-2.328 -3.763,-3.975 -4.614,-1.584 -0.672,1.888 0.413,3.646 0.297,5.601 0,0 -0.455,-1.221 -1.387,-4.341 -0.843,-2.821 -2.762,-3.024 -3.442,-1.163 -0.643,1.758 -0.097,1.796 0.066,3.263 0.218,1.949 0.59,4.404 0.59,4.404 0,0 -0.102,-2.778 -1.709,-6.278 -0.735,-1.601 -1.434,-3.354 -3.401,-1.521 -0.987,0.92 -0.594,4.067 -0.435,7.378 0,0 -0.758,-4.55 -2.636,-6.072 -1.486,-1.201 -2.496,-0.628 -2.333,1.827 0.208,3.167 0.565,4.099 0.828,6.003 0.263,1.904 2.055,4.921 4.018,4.72 1.962,-0.202 2.63,-1.406 3.904,-1.234 1.274,0.171 3.261,0.705 4.276,0.107 1.015,-0.598 1.938,-0.587 3.403,-0.334 1.438,0.248 4.7,-0.998 5.015,-2.917 z" id="path5798"></path>			</g>		</g>		<g id="g5806">			<path fill="#f8ae81" d="m 239.431,506.071 c 0,0 -0.134,-3.342 -1.122,-8.152 -0.502,-2.443 -2.657,-4.594 -3.888,-2.373 -0.972,1.753 -0.594,3.72 -1.027,5.629 0,0 -0.25,-1.279 -0.66,-4.509 -0.37,-2.922 -2.23,-3.435 -3.206,-1.71 -0.922,1.629 -0.389,1.754 -0.468,3.228 -0.105,1.961 -0.138,4.442 -0.138,4.442 0,0 0.354,-2.757 -0.66,-6.474 -0.463,-1.699 -0.867,-3.543 -3.107,-2.056 -1.124,0.747 -1.251,3.916 -1.635,7.208 0,0 0.463,-3.934 -1.141,-5.742 -1.27,-1.43 -2.827,-1.708 -3.068,0.74 -0.312,3.159 -0.112,4.137 -0.164,6.058 -0.052,1.922 1.223,5.191 3.192,5.313 1.97,0.122 2.824,-0.956 4.054,-0.579 1.229,0.378 3.102,1.229 4.2,0.807 1.099,-0.424 2.009,-0.264 3.413,0.228 1.378,0.479 4.799,-0.216 5.425,-2.058 z" id="path5804"></path>		</g>		<g id="g5886" style="display:inline">			<path fill="#2a3554" d="m 301.669,390.749 c 0,0.878 -0.046,1.741 -0.14,2.582 -0.035,0.34 -0.077,0.675 -0.129,1.008 -1.488,9.712 -9.028,16.558 -19.366,16.558 -10.639,0 -17.519,-6.74 -18.557,-16.82 -0.035,-0.318 -0.063,-0.636 -0.083,-0.961 -0.039,-0.58 -0.056,-1.167 -0.056,-1.764 0,-11.572 6.03,-20.94 19.908,-20.94 11.571,-10e-4 18.423,8.769 18.423,20.337 z" id="path5808"></path>			<g id="g5820">				<path fill="#fa8465" d="m 265.938,396.332 c 0,0 -3.215,-4.285 -5.605,-0.742 -2.39,3.545 0.989,14.014 6.842,11.458 z" id="path5810"></path>				<g id="g5814">					<path fill="#fa664d" d="m 265.896,403.813 c -0.216,0 -0.415,-0.144 -0.476,-0.361 -0.908,-3.231 -4.256,-4.542 -4.29,-4.555 -0.255,-0.098 -0.382,-0.383 -0.286,-0.639 0.097,-0.255 0.382,-0.384 0.637,-0.286 0.156,0.059 3.847,1.49 4.892,5.213 0.074,0.262 -0.079,0.536 -0.343,0.609 -0.045,0.013 -0.089,0.019 -0.134,0.019 z" id="path5812"></path>				</g>				<g id="g5818">					<path fill="#fa664d" d="m 262.517,402.185 c -0.091,0 -0.185,-0.024 -0.268,-0.077 -0.229,-0.148 -0.295,-0.455 -0.148,-0.685 0.025,-0.038 0.617,-0.941 1.856,-1.497 0.248,-0.112 0.542,0 0.653,0.251 0.112,0.249 0,0.541 -0.249,0.652 -0.958,0.429 -1.424,1.123 -1.428,1.13 -0.095,0.146 -0.254,0.226 -0.416,0.226 z" id="path5816"></path>				</g>			</g>			<g id="g5836">				<path fill="#fa8465" d="m 299.069,396.332 c 0,0 3.215,-4.285 5.605,-0.742 2.391,3.545 -0.989,14.014 -6.842,11.458 z" id="path5822"></path>				<g id="g5828">					<g id="g5826">						<path fill="#fa664d" d="m 299.111,403.813 c 0.216,0 0.415,-0.144 0.476,-0.361 0.908,-3.231 4.256,-4.542 4.29,-4.555 0.254,-0.098 0.383,-0.383 0.286,-0.639 -0.096,-0.255 -0.381,-0.384 -0.636,-0.286 -0.157,0.059 -3.847,1.49 -4.892,5.213 -0.073,0.262 0.08,0.536 0.342,0.609 0.044,0.013 0.089,0.019 0.134,0.019 z" id="path5824"></path>					</g>				</g>				<g id="g5834">					<g id="g5832">						<path fill="#fa664d" d="m 302.491,402.185 c 0.091,0 0.185,-0.024 0.268,-0.077 0.229,-0.148 0.296,-0.455 0.148,-0.685 -0.025,-0.038 -0.617,-0.941 -1.856,-1.497 -0.248,-0.112 -0.542,0 -0.653,0.251 -0.112,0.249 0,0.541 0.249,0.652 0.959,0.429 1.425,1.123 1.429,1.13 0.093,0.146 0.252,0.226 0.415,0.226 z" id="path5830"></path>					</g>				</g>			</g>			<path fill="#f8ae81" d="m 290.417,415.928 v 10.412 c 0,0 -3.104,5.302 -7.304,5.663 -4.194,0.366 -7.922,-4.565 -7.922,-4.565 V 416.66 Z" id="path5838"></path>			<path fill="#fa8465" d="m 290.417,415.928 v 4.62 c -2.818,3.126 -7.822,3.907 -15.226,2.814 v -6.702 z" id="path5840"></path>			<path fill="#f8ae81" d="m 301.394,389.189 c -0.193,4.046 -0.579,9.106 -1.351,13.151 -0.192,1.01 -0.41,1.959 -0.652,2.81 -2.191,7.672 -7.671,20.828 -23.014,15.348 -6.776,-2.419 -9.916,-9.966 -11.315,-17.643 -0.95,-5.213 -1.094,-10.479 -1.025,-14.243 0.075,-3.843 2.172,-7.354 5.515,-9.249 9.056,-5.134 18.612,-3.22 24.903,-0.801 4.367,1.677 7.162,5.965 6.939,10.627 z" id="path5842"></path>			<ellipse fill="#2a3554" cx="276.07501" cy="396.996" rx="1.28" ry="2.0120001" id="ellipse5844"></ellipse>			<ellipse fill="#2a3554" cx="290.91699" cy="396.996" rx="1.279" ry="2.0120001" id="ellipse5846"></ellipse>			<path fill="#2a3554" d="m 295.035,390.039 c 0,0 -4.037,-1.596 -7.145,-0.254 l 0.311,1.729 c 0,0 4.562,-0.386 6.86,0.546 0.207,-0.666 0.236,-1.338 -0.026,-2.021 z" id="path5848"></path>			<path fill="#2a3554" d="m 271.517,390.039 c 0,0 4.037,-1.596 7.145,-0.254 l -0.311,1.729 c 0,0 -4.562,-0.386 -6.86,0.546 -0.207,-0.666 -0.236,-1.338 0.026,-2.021 z" id="path5850"></path>			<g id="g5854">				<path fill="#fa8465" d="m 283.006,405.668 c -0.829,0.103 -1.689,-0.12 -1.823,-0.156 -0.264,-0.072 -0.419,-0.343 -0.347,-0.606 0.072,-0.263 0.344,-0.419 0.607,-0.349 0.465,0.126 1.564,0.279 1.992,-0.054 0.083,-0.064 0.19,-0.185 0.186,-0.486 -0.032,-1.736 -1.205,-7.426 -1.216,-7.483 -0.056,-0.268 0.116,-0.529 0.384,-0.584 0.268,-0.056 0.529,0.117 0.584,0.384 0.049,0.238 1.202,5.837 1.237,7.665 0.012,0.688 -0.302,1.078 -0.568,1.286 -0.291,0.225 -0.661,0.337 -1.036,0.383 z" id="path5852"></path>			</g>			<path fill="#ffffff" d="m 276.244,408.636 c 0.404,2.033 1.748,5.775 6.273,5.775 4.537,0 5.81,-3.419 6.247,-5.775 z" id="path5856"></path>			<g id="g5860">				<path fill="#fa8465" d="m 282.138,417.477 c 1.28,0 2.366,-0.648 2.411,-0.677 0.233,-0.142 0.308,-0.444 0.167,-0.679 -0.141,-0.234 -0.445,-0.309 -0.679,-0.167 -0.007,0.005 -0.901,0.533 -1.898,0.533 -0.915,0 -1.792,-0.524 -1.8,-0.531 -0.232,-0.142 -0.537,-0.071 -0.68,0.161 -0.144,0.233 -0.072,0.538 0.161,0.682 0.042,0.027 1.11,0.678 2.318,0.678 z" id="path5858"></path>			</g>			<path fill="#2a3554" d="m 300.871,396.421 h -2.241 c 0.247,-2.25 -0.57,-4.971 -1.246,-6.782 -1.532,-4.109 1.729,-5.921 -0.908,-7.979 -2.636,-2.063 -9.199,-1.179 -13.761,-1.327 -4.592,-0.148 -11.971,-0.084 -13.762,0.331 -1.794,0.411 -0.811,3.392 -0.153,5.701 0.663,2.306 -2.201,4.859 -2.681,7.246 -0.137,0.686 -0.109,1.705 10e-4,2.81 h -1.869 c -0.222,-2.908 -0.255,-5.614 -0.215,-7.809 0.075,-3.843 2.172,-7.354 5.515,-9.249 9.056,-5.134 18.612,-3.22 24.903,-0.801 4.367,1.677 7.162,5.965 6.939,10.627 -0.105,2.218 -0.269,4.739 -0.522,7.232 z" id="path5862"></path>			<g id="g5884">				<g id="g5866">					<path fill="#ffffff" d="m 286.05,398.376 c 0,-3.39 2.757,-6.146 6.146,-6.146 3.389,0 6.147,2.757 6.147,6.146 0,3.389 -2.757,6.148 -6.147,6.148 -3.39,0 -6.146,-2.758 -6.146,-6.148 z m 0.958,0 c 0,2.862 2.328,5.19 5.188,5.19 2.861,0 5.189,-2.328 5.189,-5.19 0,-2.86 -2.328,-5.188 -5.189,-5.188 -2.86,0 -5.188,2.328 -5.188,5.188 z" id="path5864"></path>				</g>				<g id="g5870">					<path fill="#ffffff" d="m 269.248,398.376 c 0,-3.39 2.758,-6.146 6.147,-6.146 3.389,0 6.146,2.757 6.146,6.146 0,3.389 -2.757,6.148 -6.146,6.148 -3.389,0 -6.147,-2.758 -6.147,-6.148 z m 0.958,0 c 0,2.862 2.328,5.19 5.189,5.19 2.861,0 5.188,-2.328 5.188,-5.19 0,-2.86 -2.327,-5.188 -5.188,-5.188 -2.861,0 -5.189,2.328 -5.189,5.188 z" id="path5868"></path>				</g>				<g id="g5874">					<path fill="#ffffff" d="m 301.529,393.331 c 0.265,0.242 0.14,0.855 -0.129,1.008 -2.24,0.443 -3.738,1.9 -3.759,1.921 -0.092,0.09 -0.213,0.137 -0.335,0.137 -0.123,0 -0.248,-0.047 -0.339,-0.141 -0.189,-0.188 -0.189,-0.493 0,-0.678 0.097,-0.097 1.879,-1.838 4.562,-2.247 z" id="path5872"></path>				</g>				<g id="g5878">					<path fill="#ffffff" d="m 270.577,396.18 c -0.095,0.139 -0.248,0.217 -0.402,0.217 -0.091,0 -0.181,-0.025 -0.262,-0.078 -0.038,-0.024 -3.357,-2.163 -6.436,-2.242 -0.346,-0.3 -0.316,-0.621 -0.083,-0.961 3.386,0.038 6.876,2.292 7.043,2.4 0.22,0.146 0.283,0.443 0.14,0.664 z" id="path5876"></path>				</g>				<g id="g5882">					<path fill="#ffffff" d="m 281.205,396.996 c 0.011,-0.015 1.148,-1.555 2.645,-1.555 1.482,0 2.511,1.537 2.522,1.552 l 0.802,-0.522 c -0.053,-0.083 -1.317,-1.987 -3.324,-1.987 -1.991,0 -3.365,1.871 -3.422,1.952 z" id="path5880"></path>				</g>			</g>		</g>	</g>	<g id="g5962">		<g id="g5960">			<g id="g5958">				<g id="g5934" style="display:inline">					<path fill="#8380f9" d="m 506.604,127.749 c 0,14.095 -3.76,27.308 -10.334,38.693 -11.69,20.249 -22.855,40.796 -33.01,61.857 l -5.724,11.874 h -56.86 l -8.366,-17.288 c -9.253,-19.117 -19.445,-37.756 -30.164,-56.093 -6.701,-11.461 -10.539,-24.804 -10.539,-39.042 0,-42.071 33.806,-76.461 75.604,-77.476 0.744,-0.019 1.489,-0.026 2.239,-0.024 42.64,0.183 77.154,34.811 77.154,77.499 z" id="path5890" style="display:inline;fill:#ffcc00"></path>					<g opacity="0.5" id="g5894" style="display:inline">						<path fill="#8380f9" d="m 367.045,133.945 c -3.06,0 -5.646,-2.349 -5.882,-5.448 -0.069,-0.91 -1.519,-22.536 14.19,-44.759 16.088,-22.758 43.157,-24.975 44.301,-25.058 3.265,-0.249 6.084,2.21 6.323,5.464 0.236,3.254 -2.211,6.085 -5.465,6.322 -0.208,0.017 -22.71,1.989 -35.508,20.093 -13.145,18.597 -12.067,36.879 -12.055,37.063 0.221,3.246 -2.223,6.073 -5.469,6.307 -0.146,0.01 -0.291,0.016 -0.435,0.016 z" id="path5892"></path>					</g>					<g id="g5930" style="display:inline">						<g id="g5928">							<g opacity="0.4" id="g5898">								<path fill="#8380f9" d="m 455.353,163.185 c -0.447,0 -0.857,-0.249 -1.065,-0.646 l -2.549,-4.894 -2.547,4.894 c -0.206,0.396 -0.617,0.646 -1.065,0.646 -0.447,0 -0.857,-0.249 -1.065,-0.646 l -2.549,-4.893 -2.545,4.892 c -0.208,0.397 -0.618,0.646 -1.065,0.646 v 0 c -0.449,0 -0.859,-0.249 -1.067,-0.646 l -2.545,-4.892 -2.547,4.893 c -0.206,0.396 -0.617,0.646 -1.065,0.646 v 0 c -0.447,0 -0.859,-0.249 -1.065,-0.646 l -2.546,-4.892 -2.547,4.892 c -0.208,0.397 -0.619,0.646 -1.065,0.646 -0.448,0 -0.859,-0.249 -1.066,-0.646 l -2.546,-4.893 -2.546,4.892 c -0.207,0.397 -0.618,0.646 -1.066,0.646 v 0 c -0.448,0 -0.858,-0.249 -1.065,-0.646 l -2.546,-4.892 -2.546,4.892 c -0.207,0.397 -0.617,0.646 -1.065,0.646 -0.447,0 -0.858,-0.249 -1.065,-0.646 l -2.546,-4.892 -2.545,4.892 c -0.207,0.397 -0.618,0.646 -1.066,0.646 v 0 c -0.448,0 -0.858,-0.249 -1.065,-0.646 l -3.611,-6.939 c -0.306,-0.589 -0.077,-1.313 0.511,-1.62 0.588,-0.306 1.313,-0.077 1.62,0.512 l 2.545,4.891 2.545,-4.892 c 0.207,-0.397 0.618,-0.646 1.065,-0.646 0.448,0 0.859,0.249 1.065,0.646 l 2.547,4.893 2.546,-4.893 c 0.207,-0.397 0.618,-0.646 1.065,-0.646 0.448,0 0.859,0.249 1.065,0.646 l 2.546,4.893 2.547,-4.893 c 0.207,-0.397 0.617,-0.646 1.065,-0.646 0.448,0 0.859,0.249 1.065,0.646 l 2.548,4.893 2.547,-4.893 c 0.206,-0.397 0.617,-0.646 1.065,-0.646 0.447,0 0.857,0.249 1.065,0.646 l 2.546,4.893 2.547,-4.893 c 0.208,-0.397 0.619,-0.646 1.065,-0.646 v 0 c 0.448,0 0.859,0.249 1.066,0.647 l 2.546,4.892 2.545,-4.893 c 0.208,-0.397 0.618,-0.646 1.065,-0.646 0.449,0 0.859,0.249 1.067,0.646 l 2.547,4.893 2.547,-4.893 c 0.206,-0.397 0.617,-0.646 1.065,-0.646 0.449,0 0.859,0.249 1.065,0.646 l 2.549,4.894 2.55,-4.894 c 0.307,-0.588 1.032,-0.817 1.619,-0.51 0.588,0.307 0.817,1.031 0.511,1.62 l -3.614,6.939 c -0.208,0.397 -0.619,0.646 -1.067,0.646 z" id="path5896"></path>							</g>							<g id="g5912">								<g id="g5904">									<g id="g5902">										<polygon fill="#2a3554" points="416.215,240.172 413.762,240.143 397.616,157.945 399.973,157.482 " id="polygon5900"></polygon>									</g>								</g>								<g id="g5910">									<g id="g5908">										<circle fill="#2a3554" cx="398.79401" cy="157.714" r="5.2490001" id="circle5906"></circle>									</g>								</g>							</g>							<g id="g5926">								<g id="g5918">									<g id="g5916">										<polygon fill="#2a3554" points="444.544,240.143 446.992,240.143 463.138,157.945 460.78,157.482 " id="polygon5914"></polygon>									</g>								</g>								<g id="g5924">									<g id="g5922">										<circle fill="#2a3554" cx="461.95801" cy="157.714" r="5.2490001" id="circle5920"></circle>									</g>								</g>							</g>						</g>					</g>					<path opacity="0.4" fill="#8380f9" d="m 506.604,127.749 c 0,14.095 -3.76,27.308 -10.334,38.693 -11.69,20.249 -22.855,40.796 -33.01,61.857 l -5.724,11.874 h -51.25 c 33.019,-3.317 70.142,-63.371 64.845,-120.502 -5.446,-58.718 -41.408,-68.842 -43.921,-69.397 0.744,-0.019 1.489,-0.026 2.239,-0.024 42.641,0.183 77.155,34.811 77.155,77.499 z" id="path5932" style="display:inline"></path>				</g>				<g id="g5956">					<g id="g5940">						<path fill="#2a3554" d="m 460.268,244.076 v 8.372 c 0,2.156 -1.751,3.907 -3.907,3.907 h -55.558 c -2.156,0 -3.907,-1.751 -3.907,-3.907 v -8.372 c 0,-2.156 1.751,-3.904 3.907,-3.904 h 55.558 c 2.156,0 3.907,1.748 3.907,3.904 z" id="path5936"></path>						<path fill="#161642" d="m 460.268,247.502 v 4.946 c 0,2.156 -1.751,3.907 -3.907,3.907 h -55.558 c -2.156,0 -3.907,-1.751 -3.907,-3.907 v -4.946 z" id="path5938"></path>					</g>					<g id="g5946">						<path fill="#2a3554" d="m 460.268,260.26 v 8.372 c 0,1.936 -1.406,3.541 -3.253,3.851 -0.214,0.036 -0.434,0.056 -0.654,0.056 h -55.558 c -0.222,0 -0.44,-0.02 -0.653,-0.056 -1.848,-0.31 -3.254,-1.916 -3.254,-3.851 v -8.372 c 0,-2.157 1.751,-3.904 3.907,-3.904 h 55.558 c 2.156,-10e-4 3.907,1.747 3.907,3.904 z" id="path5942"></path>						<path fill="#161642" d="m 460.268,263.633 v 4.999 c 0,1.936 -1.406,3.541 -3.253,3.851 H 400.15 c -1.848,-0.31 -3.254,-1.916 -3.254,-3.851 v -4.999 z" id="path5944"></path>					</g>					<g id="g5952">						<path fill="#2a3554" d="m 460.268,276.443 v 8.372 c 0,1.939 -1.415,3.548 -3.268,3.852 -0.208,0.036 -0.42,0.053 -0.64,0.053 h -55.558 c -0.219,0 -0.432,-0.017 -0.641,-0.053 -1.852,-0.303 -3.266,-1.913 -3.266,-3.852 v -8.372 c 0,-2.157 1.751,-3.904 3.907,-3.904 h 55.558 c 2.157,0 3.908,1.748 3.908,3.904 z" id="path5948"></path>						<path fill="#161642" d="m 460.268,279.816 v 4.999 c 0,1.939 -1.415,3.548 -3.268,3.852 h -56.838 c -1.852,-0.303 -3.266,-1.913 -3.266,-3.852 v -4.999 z" id="path5950"></path>					</g>					<path fill="#161642" d="m 413.439,288.719 c 0.063,8.54 7.002,15.441 15.556,15.441 8.553,0 15.493,-6.901 15.555,-15.441 z" id="path5954"></path>				</g>			</g>		</g>	</g>	<g id="g6164">		<g id="g6020">			<g id="g6018">				<g id="g5966" style="fill:#ff2a2a">					<path fill="#8380f9" d="m 746.459,509.701 c 0,4.851 -3.946,8.798 -8.8,8.798 -4.851,0 -8.798,-3.947 -8.798,-8.798 0,-4.852 3.947,-8.799 8.798,-8.799 4.854,0 8.8,3.948 8.8,8.799 z m -14.838,0 c 0,3.329 2.711,6.038 6.038,6.038 3.33,0 6.04,-2.709 6.04,-6.038 0,-3.33 -2.71,-6.039 -6.04,-6.039 -3.327,0 -6.038,2.709 -6.038,6.039 z" id="path5964" style="fill:#ff2a2a"></path>				</g>				<g id="g5970" style="fill:#d10000;fill-opacity:1">					<path fill="#5f46f1" d="m 755.408,464.982 c 0,4.851 -3.946,8.8 -8.797,8.8 -4.851,0 -8.798,-3.949 -8.798,-8.8 0,-4.852 3.947,-8.799 8.798,-8.799 4.851,0 8.797,3.948 8.797,8.799 z m -14.835,0 c 0,3.329 2.707,6.038 6.038,6.038 3.33,0 6.037,-2.709 6.037,-6.038 0,-3.33 -2.707,-6.039 -6.037,-6.039 -3.331,0 -6.038,2.709 -6.038,6.039 z" id="path5968" style="fill:#d10000;fill-opacity:1"></path>				</g>				<g id="g5992" style="fill:#ff5555">					<g id="g5980" style="fill:#ff5555">						<g id="g5974" style="fill:#ff5555">							<path fill="#5f46f1" d="m 773.376,443.794 c 0,0.762 -0.62,1.38 -1.382,1.38 h -6.087 c -0.762,0 -1.378,-0.618 -1.378,-1.38 0,-0.764 0.616,-1.38 1.378,-1.38 h 6.087 c 0.762,0 1.382,0.616 1.382,1.38 z" id="path5972" style="fill:#ff5555"></path>						</g>						<g id="g5978" style="fill:#ff5555">							<path fill="#5f46f1" d="m 784.026,443.794 c 0,0.762 -0.617,1.38 -1.382,1.38 h -6.084 c -0.765,0 -1.381,-0.618 -1.381,-1.38 0,-0.764 0.616,-1.38 1.381,-1.38 h 6.084 c 0.765,0 1.382,0.616 1.382,1.38 z" id="path5976" style="fill:#ff5555"></path>						</g>					</g>					<g id="g5990" style="fill:#ff5555">						<g id="g5984" style="fill:#ff5555">							<path fill="#5f46f1" d="m 775.657,435.251 v 5.467 c 0,0.762 -0.619,1.38 -1.381,1.38 -0.762,0 -1.379,-0.618 -1.379,-1.38 v -5.467 c 0,-0.762 0.617,-1.38 1.379,-1.38 0.762,0 1.381,0.618 1.381,1.38 z" id="path5982" style="fill:#ff5555"></path>						</g>						<g id="g5988" style="fill:#ff5555">							<path fill="#5f46f1" d="m 775.657,446.869 v 5.469 c 0,0.762 -0.619,1.38 -1.381,1.38 -0.762,0 -1.379,-0.618 -1.379,-1.38 v -5.469 c 0,-0.762 0.617,-1.38 1.379,-1.38 0.762,0 1.381,0.618 1.381,1.38 z" id="path5986" style="fill:#ff5555"></path>						</g>					</g>				</g>				<g id="g6016" style="fill:#800000">					<g id="g6014" style="fill:#800000">						<g id="g6002" style="fill:#800000">							<g id="g5996" style="fill:#800000">								<path fill="#3c3cc2" d="m 763.451,490.788 c 0,0.762 -0.62,1.38 -1.382,1.38 h -6.087 c -0.762,0 -1.379,-0.618 -1.379,-1.38 0,-0.764 0.617,-1.382 1.379,-1.382 h 6.087 c 0.762,0 1.382,0.618 1.382,1.382 z" id="path5994" style="fill:#800000"></path>							</g>							<g id="g6000" style="fill:#800000">								<path fill="#3c3cc2" d="m 774.102,490.788 c 0,0.762 -0.62,1.38 -1.382,1.38 h -6.084 c -0.765,0 -1.382,-0.618 -1.382,-1.38 0,-0.764 0.617,-1.382 1.382,-1.382 h 6.084 c 0.761,0 1.382,0.618 1.382,1.382 z" id="path5998" style="fill:#800000"></path>							</g>						</g>						<g id="g6012" style="fill:#800000">							<g id="g6006" style="fill:#800000">								<path fill="#3c3cc2" d="m 765.732,482.244 v 5.468 c 0,0.762 -0.62,1.38 -1.382,1.38 -0.762,0 -1.378,-0.618 -1.378,-1.38 v -5.468 c 0,-0.763 0.616,-1.38 1.378,-1.38 0.762,0 1.382,0.617 1.382,1.38 z" id="path6004" style="fill:#800000"></path>							</g>							<g id="g6010" style="fill:#800000">								<path fill="#3c3cc2" d="m 765.732,493.862 v 5.469 c 0,0.762 -0.62,1.379 -1.382,1.379 -0.762,0 -1.378,-0.617 -1.378,-1.379 v -5.469 c 0,-0.761 0.616,-1.38 1.378,-1.38 0.762,0 1.382,0.62 1.382,1.38 z" id="path6008" style="fill:#800000"></path>							</g>						</g>					</g>				</g>			</g>		</g>		<g id="g6080">			<g id="g6078">				<g id="g6024" style="display:inline;fill:#d40000">					<path fill="#5f46f1" d="m 93.825,216.206 c 0,4.852 -3.947,8.798 -8.798,8.798 -4.851,0 -8.799,-3.947 -8.799,-8.798 0,-4.851 3.948,-8.798 8.799,-8.798 4.851,0 8.798,3.947 8.798,8.798 z m -2.761,0 c 0,-3.33 -2.708,-6.037 -6.038,-6.037 -3.33,0 -6.038,2.708 -6.038,6.037 0,3.331 2.708,6.039 6.038,6.039 3.33,0 6.038,-2.708 6.038,-6.039 z" id="path6022" style="fill:#d40000"></path>				</g>				<g id="g6030" style="fill:#ff8080">					<g id="g6028" style="fill:#ff8080">						<path fill="#8380f9" d="m 129.741,204.336 c 0,4.852 -3.947,8.799 -8.798,8.799 -4.852,0 -8.799,-3.947 -8.799,-8.799 0,-4.851 3.947,-8.798 8.799,-8.798 4.851,0 8.798,3.947 8.798,8.798 z m -2.76,0 c 0,-3.33 -2.709,-6.038 -6.039,-6.038 -3.33,0 -6.038,2.708 -6.038,6.038 0,3.331 2.708,6.039 6.038,6.039 3.33,0 6.039,-2.708 6.039,-6.039 z" id="path6026" style="fill:#ff8080"></path>					</g>				</g>				<g id="g6052" style="fill:#aa0000">					<g id="g6040" style="fill:#aa0000">						<g id="g6034" style="fill:#aa0000">							<path fill="#3c3cc2" d="m 130.866,166.563 c -0.762,0 -1.381,0.618 -1.381,1.38 v 6.086 c 0,0.762 0.619,1.38 1.381,1.38 0.762,0 1.38,-0.618 1.38,-1.38 v -6.086 c 0,-0.762 -0.618,-1.38 -1.38,-1.38 z" id="path6032" style="fill:#aa0000"></path>						</g>						<g id="g6038" style="fill:#aa0000">							<path fill="#3c3cc2" d="m 130.866,155.912 c -0.762,0 -1.381,0.618 -1.381,1.38 v 6.086 c 0,0.762 0.619,1.38 1.381,1.38 0.762,0 1.38,-0.618 1.38,-1.38 v -6.086 c 0,-0.762 -0.618,-1.38 -1.38,-1.38 z" id="path6036" style="fill:#aa0000"></path>						</g>					</g>					<g id="g6050" style="fill:#aa0000">						<g id="g6044" style="fill:#aa0000">							<path fill="#3c3cc2" d="m 139.409,164.281 h -5.467 c -0.763,0 -1.381,0.618 -1.381,1.38 0,0.762 0.618,1.38 1.381,1.38 h 5.467 c 0.762,0 1.38,-0.618 1.38,-1.38 0.001,-0.763 -0.618,-1.38 -1.38,-1.38 z" id="path6042" style="fill:#aa0000"></path>						</g>						<g id="g6048" style="fill:#aa0000">							<path fill="#3c3cc2" d="m 127.79,164.281 h -5.467 c -0.762,0 -1.38,0.618 -1.38,1.38 0,0.762 0.618,1.38 1.38,1.38 h 5.467 c 0.762,0 1.381,-0.618 1.381,-1.38 0,-0.763 -0.619,-1.38 -1.381,-1.38 z" id="path6046" style="fill:#aa0000"></path>						</g>					</g>				</g>				<g id="g6076" style="fill:#d40000">					<g id="g6074" style="fill:#d40000">						<g id="g6062" style="fill:#d40000">							<g id="g6056" style="fill:#d40000">								<path fill="#5f46f1" d="m 93.57,176.312 c -0.762,0 -1.381,0.619 -1.381,1.38 v 6.087 c 0,0.762 0.619,1.38 1.381,1.38 0.762,0 1.38,-0.618 1.38,-1.38 v -6.087 c 0,-0.761 -0.618,-1.38 -1.38,-1.38 z" id="path6054" style="fill:#d40000"></path>							</g>							<g id="g6060" style="fill:#d40000">								<path fill="#5f46f1" d="m 93.57,165.661 c -0.762,0 -1.381,0.618 -1.381,1.38 v 6.086 c 0,0.762 0.619,1.38 1.381,1.38 0.762,0 1.38,-0.618 1.38,-1.38 v -6.086 c 0,-0.762 -0.618,-1.38 -1.38,-1.38 z" id="path6058" style="fill:#d40000"></path>							</g>						</g>						<g id="g6072" style="fill:#d40000">							<g id="g6066" style="fill:#d40000">								<path fill="#5f46f1" d="m 102.112,174.03 h -5.467 c -0.763,0 -1.38,0.618 -1.38,1.38 0,0.762 0.617,1.38 1.38,1.38 h 5.467 c 0.763,0 1.381,-0.619 1.381,-1.38 0,-0.762 -0.618,-1.38 -1.381,-1.38 z" id="path6064" style="fill:#d40000"></path>							</g>							<g id="g6070" style="fill:#d40000">								<path fill="#5f46f1" d="m 90.494,174.03 h -5.468 c -0.763,0 -1.38,0.618 -1.38,1.38 0,0.762 0.617,1.38 1.38,1.38 h 5.468 c 0.762,0 1.38,-0.619 1.38,-1.38 0,-0.762 -0.618,-1.38 -1.38,-1.38 z" id="path6068" style="fill:#d40000"></path>							</g>						</g>					</g>				</g>			</g>		</g>		<g id="g6122">			<g id="g6108">				<g id="g6084">					<path fill="#ccccff" d="m 557.83,154.677 c 0.165,0.018 0.338,-0.005 0.502,-0.075 1.743,-0.736 2.763,-1.079 2.775,-1.083 0.534,-0.178 0.823,-0.756 0.645,-1.29 -0.18,-0.534 -0.757,-0.822 -1.291,-0.645 -0.044,0.015 -1.096,0.368 -2.923,1.138 -0.518,0.219 -0.762,0.817 -0.542,1.336 0.15,0.356 0.476,0.582 0.834,0.619 z" id="path6082"></path>				</g>				<g id="g6106">					<path fill="#ccccff" d="m 505.854,209.378 c -0.692,1.851 -1.342,3.759 -1.931,5.672 -0.145,0.473 -0.605,0.765 -1.082,0.715 -0.064,-0.006 -0.128,-0.02 -0.193,-0.04 -0.537,-0.166 -0.841,-0.736 -0.674,-1.274 0.599,-1.953 1.263,-3.9 1.97,-5.789 0.198,-0.527 0.783,-0.794 1.313,-0.597 0.527,0.198 0.794,0.786 0.597,1.313 z" id="path6086"></path>					<path fill="#ccccff" d="m 502.333,220.828 c -0.466,1.917 -0.889,3.889 -1.254,5.864 -0.098,0.526 -0.585,0.884 -1.11,0.828 -0.026,-0.003 -0.053,-0.006 -0.079,-0.011 -0.554,-0.104 -0.92,-0.635 -0.817,-1.189 0.373,-2.011 0.804,-4.022 1.279,-5.975 0.133,-0.547 0.688,-0.882 1.233,-0.749 0.547,0.133 0.882,0.685 0.748,1.232 z" id="path6088"></path>					<path fill="#ccccff" d="m 498.032,251.627 c -0.506,-0.055 -0.903,-0.479 -0.912,-1 -0.031,-2.046 -0.017,-4.099 0.044,-6.103 0.017,-0.563 0.488,-1.006 1.05,-0.988 0.57,0.02 1.005,0.486 0.989,1.05 -0.061,1.972 -0.074,3.993 -0.044,6.009 0.01,0.563 -0.44,1.027 -1.004,1.036 -0.04,0.003 -0.082,-0.001 -0.123,-0.004 z" id="path6090"></path>					<path fill="#ccccff" d="m 499.269,231.474 c 0.558,0.073 0.952,0.584 0.879,1.143 -0.12,0.922 -0.229,1.853 -0.325,2.768 -0.112,1.057 -0.211,2.133 -0.295,3.204 -0.044,0.562 -0.534,0.981 -1.096,0.938 -0.01,-10e-4 -0.018,-0.003 -0.028,-0.003 -0.547,-0.058 -0.951,-0.541 -0.909,-1.095 0.086,-1.086 0.187,-2.183 0.298,-3.258 0.099,-0.93 0.209,-1.879 0.333,-2.816 0.071,-0.55 0.569,-0.941 1.116,-0.883 0.01,-0.001 0.019,0 0.027,0.002 z" id="path6092"></path>					<path fill="#ccccff" d="m 508.13,203.837 c -0.186,0.413 -0.612,0.643 -1.039,0.598 -0.104,-0.011 -0.208,-0.038 -0.31,-0.083 -0.514,-0.23 -0.744,-0.833 -0.514,-1.347 0.831,-1.857 1.731,-3.709 2.674,-5.503 0.262,-0.499 0.879,-0.69 1.378,-0.428 0.498,0.262 0.689,0.879 0.427,1.376 -0.922,1.757 -1.803,3.569 -2.616,5.387 z" id="path6094"></path>					<path fill="#ccccff" d="m 552.915,157.136 c -1.752,0.896 -3.518,1.87 -5.252,2.897 -0.198,0.115 -0.416,0.158 -0.626,0.136 -0.31,-0.032 -0.601,-0.206 -0.772,-0.494 -0.287,-0.485 -0.127,-1.111 0.358,-1.397 1.771,-1.049 3.576,-2.043 5.365,-2.957 0.501,-0.255 1.116,-0.057 1.372,0.444 0.256,0.501 0.057,1.115 -0.445,1.371 z" id="path6096"></path>					<path fill="#ccccff" d="m 537.716,166.74 c -0.214,0.164 -0.475,0.229 -0.725,0.203 -0.269,-0.029 -0.526,-0.163 -0.704,-0.396 -0.341,-0.448 -0.255,-1.087 0.193,-1.429 1.614,-1.232 3.286,-2.434 4.969,-3.569 0.468,-0.314 1.101,-0.192 1.416,0.275 0.315,0.467 0.191,1.101 -0.275,1.416 -1.651,1.114 -3.29,2.292 -4.874,3.5 z" id="path6098"></path>					<path fill="#ccccff" d="m 520.58,183.437 c -0.226,0.282 -0.569,0.412 -0.903,0.376 -0.188,-0.02 -0.371,-0.091 -0.529,-0.217 -0.44,-0.352 -0.511,-0.994 -0.158,-1.434 1.266,-1.583 2.603,-3.149 3.972,-4.655 0.379,-0.417 1.023,-0.448 1.441,-0.069 0.417,0.378 0.447,1.023 0.069,1.441 -1.342,1.475 -2.651,3.009 -3.892,4.558 z" id="path6100"></path>					<path fill="#ccccff" d="m 528.637,174.569 c -0.226,0.22 -0.528,0.314 -0.819,0.284 -0.229,-0.024 -0.45,-0.125 -0.623,-0.303 -0.393,-0.403 -0.384,-1.049 0.02,-1.442 1.451,-1.411 2.969,-2.802 4.514,-4.133 0.425,-0.368 1.07,-0.32 1.438,0.106 0.368,0.427 0.32,1.071 -0.107,1.438 -1.515,1.306 -3.002,2.668 -4.423,4.05 z" id="path6102"></path>					<path fill="#ccccff" d="m 513.701,193.241 c -0.211,0.347 -0.599,0.523 -0.978,0.483 -0.145,-0.016 -0.29,-0.063 -0.424,-0.145 -0.481,-0.293 -0.631,-0.921 -0.338,-1.402 1.059,-1.733 2.186,-3.456 3.352,-5.119 0.325,-0.46 0.96,-0.573 1.421,-0.249 0.461,0.323 0.574,0.959 0.249,1.42 -1.14,1.629 -2.245,3.314 -3.282,5.012 z" id="path6104"></path>				</g>			</g>			<g id="g6120" style="fill:#c83737">				<g id="g6118" style="display:inline;fill:#c83737">					<polygon fill="#8380f9" points="553.387,131.17 608.073,131.64 557.85,147.699 " id="polygon6110" style="fill:#c83737"></polygon>					<polygon fill="#5f46f1" points="608.073,131.638 560.504,151.69 560.377,151.745 558.331,155.134 557.85,147.699 " id="polygon6112" style="fill:#c83737"></polygon>					<polygon fill="#3c3cc2" points="562.764,154.435 560.377,151.745 558.331,155.134 " id="polygon6114" style="fill:#c83737"></polygon>					<polygon fill="#8380f9" points="566.363,149.22 560.375,151.744 572.704,165.635 608.073,131.64 " id="polygon6116" style="fill:#c83737"></polygon>				</g>			</g>		</g>		<g id="g6136">			<g id="g6134">				<rect x="719.42499" y="350.673" fill="#8380f9" width="71.100998" height="50.884998" id="rect6124" style="display:inline;fill:#d40000"></rect>				<polygon fill="#161642" points="787.066,382.271 775.614,362.987 752.715,401.559 790.522,401.559 790.522,388.094 " id="polygon6126"></polygon>				<polygon fill="#2a3554" points="776.524,401.559 747.973,401.559 719.425,401.559 733.698,378.556 747.973,355.552 762.25,378.556 " id="polygon6128"></polygon>				<polygon fill="#ffffff" points="747.973,355.552 738.721,370.466 747.973,377.394 757.229,370.466 " id="polygon6130"></polygon>				<polygon fill="#ffffff" points="775.614,362.987 767.823,376.115 775.614,382.271 783.409,376.115 " id="polygon6132"></polygon>			</g>		</g>		<g id="g6148" style="display:inline">			<g id="g6140" style="display:inline;fill:#d40000">				<path fill="#8380f9" d="m 114.517,262.423 v 34.276 c 0,2.196 -1.775,3.957 -3.956,3.957 h -34.29 c -1.504,0 -2.805,-0.826 -3.481,-2.059 -0.067,-0.135 -0.136,-0.272 -0.176,-0.407 -0.068,-0.203 -0.135,-0.406 -0.203,-0.624 0,-0.026 -0.014,-0.04 -0.014,-0.066 0,-0.028 -0.013,-0.069 -0.013,-0.096 -0.042,-0.23 -0.068,-0.461 -0.068,-0.706 v -34.276 c 0,-2.059 1.559,-3.726 3.536,-3.944 0.135,0 0.285,-0.013 0.42,-0.013 h 34.291 c 0.407,0 0.8,0.056 1.165,0.178 0,0 0,0 0.014,0 1.611,0.502 2.775,1.993 2.775,3.78 z" id="path6138" style="fill:#d40000"></path>			</g>			<g id="g6146" style="display:inline">				<path fill="#ffffff" d="m 103.205,281.191 c -3.104,-5.81 -6.453,-11.099 -9.164,-17.604 v 9.417 c 0.885,0.269 1.529,1.091 1.529,2.063 0,1.192 -0.963,2.157 -2.156,2.157 -1.188,0 -2.156,-0.965 -2.156,-2.157 0,-0.971 0.645,-1.793 1.529,-2.063 v -9.417 c -2.707,6.505 -5.048,9.084 -9.161,17.604 l 6.537,6.606 h 3.252 3.163 z" id="path6142"></path>				<rect x="90.139999" y="289.88699" fill="#ffffff" width="6.4239998" height="3.5209999" id="rect6144"></rect>			</g>		</g>		<g id="g6162">			<g id="g6152" style="display:inline;fill:#d40000">				<path fill="#5f46f1" d="m 670.313,161.877 v 32.303 c 0,2.069 -1.672,3.729 -3.729,3.729 H 634.27 c -1.418,0 -2.644,-0.779 -3.283,-1.94 -0.063,-0.128 -0.127,-0.255 -0.164,-0.383 -0.064,-0.191 -0.129,-0.382 -0.191,-0.587 0,-0.025 -0.014,-0.039 -0.014,-0.064 0,-0.025 -0.013,-0.063 -0.013,-0.089 -0.038,-0.217 -0.064,-0.435 -0.064,-0.665 v -32.303 c 0,-1.941 1.469,-3.511 3.333,-3.715 0.127,0 0.268,-0.013 0.396,-0.013 h 32.314 c 0.383,0 0.755,0.051 1.099,0.166 0,0 0,0 0.013,0 1.52,0.471 2.617,1.875 2.617,3.561 z" id="path6150" style="fill:#d40000"></path>			</g>			<g id="g6160">				<g id="g6158">					<path fill="#ffffff" d="m 650.463,163.644 c -0.079,0 -0.158,0 -0.237,0.003 -4.432,0.107 -8.015,3.753 -8.015,8.213 0,1.509 0.405,2.924 1.116,4.139 1.138,1.944 2.218,3.92 3.198,5.948 l 0.887,1.833 h 0.596 5.433 l 0.608,-1.259 c 1.076,-2.233 2.258,-4.411 3.498,-6.558 0.697,-1.208 1.097,-2.608 1.097,-4.103 0,-4.526 -3.66,-8.197 -8.181,-8.216 z" id="path6154"></path>					<path fill="#ffffff" d="m 653.46,186.069 h -6.056 v 2.025 c 0,1.671 1.355,3.027 3.027,3.027 v 0 c 1.672,0 3.028,-1.355 3.028,-3.027 v -2.025 z" id="path6156"></path>				</g>			</g>		</g>	</g>	<g id="g6200" style="fill:#aa0000">		<path fill="#8380f9" d="m 520.571,629.848 h -36.327 c -4.939,0 -9.318,-3.182 -10.845,-7.881 l -15.405,-47.418 c -0.63,-1.94 0.722,-3.955 2.756,-4.113 28.049,-2.175 55.823,-2.176 83.321,-0.007 2.033,0.162 3.381,2.177 2.751,4.114 l -15.407,47.424 c -1.525,4.699 -5.904,7.881 -10.844,7.881 z" id="path6166" style="fill:#aa0000"></path>		<ellipse fill="#161642" cx="502.65601" cy="573.87799" rx="40.941002" ry="2.2839999" id="ellipse6168" style="fill:#aa0000"></ellipse>		<g id="g6198" style="fill:#aa0000">			<g id="g6172" style="fill:#aa0000">				<path fill="#3c3cc2" d="m 504.126,540.194 c 0,0 -0.401,-26.483 -33.742,-30.595 0,0.001 1.174,37.541 33.742,30.595 z" id="path6170" style="fill:#aa0000"></path>			</g>			<g id="g6176" style="fill:#aa0000">				<path fill="#3c3cc2" d="m 500.489,508.778 c 0,0 3.324,-26.276 36.914,-26.679 0,0.001 -5.314,37.18 -36.914,26.679 z" id="path6174" style="fill:#aa0000"></path>			</g>			<g id="g6180" style="fill:#aa0000">				<path fill="#5f46f1" d="m 500.489,487.456 v 86.146 c 1.388,0.388 2.688,0.386 3.838,0 v -86.146 c 0,-1.061 -0.859,-1.919 -1.919,-1.919 v 0 c -1.06,0 -1.919,0.859 -1.919,1.919 z" id="path6178" style="fill:#aa0000"></path>			</g>			<g id="g6184" style="fill:#aa0000">				<path fill="#5f46f1" d="m 501.9,510.419 c 0,0 19.596,18.563 42.01,-17.597 0,0 -38.818,-7.773 -42.01,17.597 z" id="path6182" style="fill:#aa0000"></path>			</g>			<g id="g6188" style="fill:#aa0000">				<path fill="#5f46f1" d="m 503.253,539.718 c 0,0 21.885,15.799 39.305,-23.016 0,0 -39.507,-2.554 -39.305,23.016 z" id="path6186" style="fill:#aa0000"></path>			</g>			<g id="g6192" style="fill:#aa0000">				<path fill="#5f46f1" d="m 502.408,543.072 c 0,0 -0.771,-26.98 -42.175,-17.197 0,0 22.003,32.913 42.175,17.197 z" id="path6190" style="fill:#aa0000"></path>			</g>			<g id="g6196" style="fill:#aa0000">				<path fill="#5f46f1" d="m 504.399,509.056 c 0,0 -0.11,-26.992 -41.741,-18.227 0,0 21.189,33.442 41.741,18.227 z" id="path6194" style="fill:#aa0000"></path>			</g>		</g>	</g>	<g id="g6212">		<g id="g6210">			<path fill="#5f46f1" d="m 62.562,614.725 -5.82,-1.396 c -4.738,-1.136 -7.658,-5.897 -6.522,-10.634 l 39.48,-164.619 22.973,5.51 -39.479,164.617 c -1.136,4.737 -5.896,7.655 -10.632,6.522 z" id="path6202" style="fill:#d40000"></path>							<rect x="93.486" y="406.05301" transform="matrix(0.9724,0.2332,-0.2332,0.9724,101.7182,-12.8741)" fill="#8380f9" width="23.624001" height="35.264" id="rect6204" style="fill:#ffaaaa"></rect>			<path fill="#ffffff" d="m 136.122,381.395 c -1.474,9.553 -5.84,19.328 -15.224,27.896 l -22.976,-5.505 c 0,0 -5.798,-15.248 0.035,-27.213 1.299,-2.654 2.617,-4.77 3.945,-6.479 0,0 0,0 0.008,-0.006 10.763,-13.892 21.99,-1.27 24.337,-33.742 -0.001,-10e-4 13.461,21.855 9.875,45.049 z" id="path6206" style="display:inline"></path>			<path fill="#5f46f1" d="m 136.122,381.395 c -6.741,6.058 -18.105,-4.061 -21.733,-9.077 -4.337,-6.005 -12.165,-2.378 -12.48,-2.23 10.763,-13.892 21.99,-1.27 24.337,-33.742 0,-10e-4 13.462,21.855 9.876,45.049 z" id="path6208" style="display:inline;fill:#d40000"></path>		</g>	</g><g id="g8711" transform="matrix(0.52441671,0,0,0.52441671,-516.90965,1041.1907)" style="display:inline"><g id="rules"></g><g id="colors"></g><g id="g8893" transform="matrix(0.06932299,0,0,0.06932299,2189.2295,-1126.6877)"><g id="rules-3"></g><g id="colors-6"></g><g id="logo"><path style="fill:#e13448" d="M 102,9 C 98.8,3.4 92.8,0 86.4,0 H 69.9 C 63.5,0 57.5,3.4 54.3,9 L 2.4,99 C 0.8,101.8 0,104.9 0,108 h 87.2 l 36,-62.4 z" id="path8850"></path><path id="XMLID_11_" style="fill:#ffd332" d="M 233.6,81 192,9 C 188.8,3.4 182.8,0 176.4,0 h -90 c 6.4,0 12.4,3.4 15.6,9 l 41.6,72 z"></path><path style="fill:#6b263e" d="M 102,207 123.2,170.4 87.2,108 H 0 c 0,3.1 0.8,6.3 2.4,9 l 51.9,90 c 3.2,5.6 9.2,9 15.6,9 h 16.5 c 6.5,0 12.4,-3.4 15.6,-9 z" id="path8853"></path><path id="XMLID_10_" style="fill:#e13448" d="M 143.6,135 102,207 c -3.2,5.6 -9.2,9 -15.6,9 h 90 c 6.4,0 12.4,-3.4 15.6,-9 l 41.6,-72 z"></path><g id="g8868"><path style="fill:#ffffff" d="m 269.7,107.9 c 0,-38 27.8,-65 65.8,-65 25.4,0 40.9,11.1 49.1,22.4 l -21.3,20 c -5.9,-8.7 -14.9,-13.4 -26.2,-13.4 -19.8,0 -33.7,14.4 -33.7,36 0,21.6 13.9,36.2 33.7,36.2 11.3,0 20.3,-5.1 26.2,-13.6 l 21.3,20 c -8.2,11.3 -23.6,22.6 -49.1,22.6 -38.1,0.1 -65.8,-26.9 -65.8,-65.2 z" id="path8856"></path><path style="fill:#ffffff" d="M 395.6,170.1 V 45.9 h 32.6 v 16.7 c 9,-10.8 24.2,-19.8 39.6,-19.8 v 31.9 c -2.3,-0.5 -5.1,-0.8 -9,-0.8 -10.8,0 -25.2,6.2 -30.6,14.1 v 82 h -32.6 z" id="path8858"></path><path style="fill:#ffffff" d="m 467.8,107.9 c 0,-36 26.7,-65 64.3,-65 37.3,0 62.2,27.8 62.2,68.1 v 7.7 H 502 c 2.3,15.2 14.7,27.8 35.7,27.8 10.5,0 24.9,-4.4 32.9,-12.1 l 14.7,21.6 c -12.3,11.3 -31.9,17.2 -51.2,17.2 -37.8,0 -66.3,-25.5 -66.3,-65.3 z M 532,69.6 c -20.3,0 -29,14.1 -30.3,26.5 h 61.2 C 561.9,84.2 553.6,69.6 532,69.6 Z" id="path8860"></path><path style="fill:#ffffff" d="M 684.5,170.1 V 157 c -8.5,10.3 -23.1,16.2 -39.3,16.2 -19.8,0 -42.9,-13.4 -42.9,-41.1 0,-29.3 23.1,-40.1 42.9,-40.1 16.7,0 31.1,5.4 39.3,15.2 V 91.4 c 0,-12.6 -10.8,-20.8 -27.2,-20.8 -13.1,0 -25.4,5.1 -35.7,14.7 L 608.7,62.4 c 15.2,-13.6 34.7,-19.5 54.2,-19.5 28.5,0 54.5,11.3 54.5,47 v 80.2 z m 0,-29.8 v -15.4 c -5.4,-7.2 -15.7,-11.1 -26.2,-11.1 -12.9,0 -23.4,6.9 -23.4,18.8 0,11.8 10.5,18.5 23.4,18.5 10.5,0 20.8,-3.6 26.2,-10.8 z" id="path8862"></path><path style="fill:#ffffff" d="M 734.4,170.1 V 45.9 H 767 v 16.7 c 9,-10.8 24.2,-19.8 39.6,-19.8 v 31.9 c -2.3,-0.5 -5.1,-0.8 -9,-0.8 -10.8,0 -25.2,6.2 -30.6,14.1 v 82 h -32.6 z" id="path8864"></path><path style="fill:#ffffff" d="m 809.5,107.9 c 0,-36 26.7,-65 64.3,-65 37.3,0 62.2,27.8 62.2,68.1 v 7.7 h -92.3 c 2.3,15.2 14.7,27.8 35.7,27.8 10.5,0 24.9,-4.4 32.9,-12.1 L 927,156 c -12.3,11.3 -31.9,17.2 -51.2,17.2 -37.7,0 -66.3,-25.5 -66.3,-65.3 z m 64.3,-38.3 c -20.3,0 -29,14.1 -30.3,26.5 h 61.2 C 903.6,84.2 895.4,69.6 873.8,69.6 Z" id="path8866"></path></g></g></g></g><g id="g9017" transform="matrix(0.52441671,0,0,0.52441671,-882.63777,1038.5186)" style="display:inline"><g id="g8983"></g><g id="g8985"></g><g id="g9015" transform="matrix(0.06932299,0,0,0.06932299,2189.2295,-1126.6877)"><g id="g8987"></g><g id="g8989"></g><g id="g9013"><path style="fill:#e13448" d="M 102,9 C 98.8,3.4 92.8,0 86.4,0 H 69.9 C 63.5,0 57.5,3.4 54.3,9 L 2.4,99 C 0.8,101.8 0,104.9 0,108 h 87.2 l 36,-62.4 z" id="path8991"></path><path id="path8993" style="fill:#ffd332" d="M 233.6,81 192,9 C 188.8,3.4 182.8,0 176.4,0 h -90 c 6.4,0 12.4,3.4 15.6,9 l 41.6,72 z"></path><path style="fill:#6b263e" d="M 102,207 123.2,170.4 87.2,108 H 0 c 0,3.1 0.8,6.3 2.4,9 l 51.9,90 c 3.2,5.6 9.2,9 15.6,9 h 16.5 c 6.5,0 12.4,-3.4 15.6,-9 z" id="path8995"></path><path id="path8997" style="fill:#e13448" d="M 143.6,135 102,207 c -3.2,5.6 -9.2,9 -15.6,9 h 90 c 6.4,0 12.4,-3.4 15.6,-9 l 41.6,-72 z"></path><g id="g9011"><path style="fill:#ffffff" d="m 269.7,107.9 c 0,-38 27.8,-65 65.8,-65 25.4,0 40.9,11.1 49.1,22.4 l -21.3,20 c -5.9,-8.7 -14.9,-13.4 -26.2,-13.4 -19.8,0 -33.7,14.4 -33.7,36 0,21.6 13.9,36.2 33.7,36.2 11.3,0 20.3,-5.1 26.2,-13.6 l 21.3,20 c -8.2,11.3 -23.6,22.6 -49.1,22.6 -38.1,0.1 -65.8,-26.9 -65.8,-65.2 z" id="path8999"></path><path style="fill:#ffffff" d="M 395.6,170.1 V 45.9 h 32.6 v 16.7 c 9,-10.8 24.2,-19.8 39.6,-19.8 v 31.9 c -2.3,-0.5 -5.1,-0.8 -9,-0.8 -10.8,0 -25.2,6.2 -30.6,14.1 v 82 h -32.6 z" id="path9001"></path><path style="fill:#ffffff" d="m 467.8,107.9 c 0,-36 26.7,-65 64.3,-65 37.3,0 62.2,27.8 62.2,68.1 v 7.7 H 502 c 2.3,15.2 14.7,27.8 35.7,27.8 10.5,0 24.9,-4.4 32.9,-12.1 l 14.7,21.6 c -12.3,11.3 -31.9,17.2 -51.2,17.2 -37.8,0 -66.3,-25.5 -66.3,-65.3 z M 532,69.6 c -20.3,0 -29,14.1 -30.3,26.5 h 61.2 C 561.9,84.2 553.6,69.6 532,69.6 Z" id="path9003"></path><path style="fill:#ffffff" d="M 684.5,170.1 V 157 c -8.5,10.3 -23.1,16.2 -39.3,16.2 -19.8,0 -42.9,-13.4 -42.9,-41.1 0,-29.3 23.1,-40.1 42.9,-40.1 16.7,0 31.1,5.4 39.3,15.2 V 91.4 c 0,-12.6 -10.8,-20.8 -27.2,-20.8 -13.1,0 -25.4,5.1 -35.7,14.7 L 608.7,62.4 c 15.2,-13.6 34.7,-19.5 54.2,-19.5 28.5,0 54.5,11.3 54.5,47 v 80.2 z m 0,-29.8 v -15.4 c -5.4,-7.2 -15.7,-11.1 -26.2,-11.1 -12.9,0 -23.4,6.9 -23.4,18.8 0,11.8 10.5,18.5 23.4,18.5 10.5,0 20.8,-3.6 26.2,-10.8 z" id="path9005"></path><path style="fill:#ffffff" d="M 734.4,170.1 V 45.9 H 767 v 16.7 c 9,-10.8 24.2,-19.8 39.6,-19.8 v 31.9 c -2.3,-0.5 -5.1,-0.8 -9,-0.8 -10.8,0 -25.2,6.2 -30.6,14.1 v 82 h -32.6 z" id="path9007"></path><path style="fill:#ffffff" d="m 809.5,107.9 c 0,-36 26.7,-65 64.3,-65 37.3,0 62.2,27.8 62.2,68.1 v 7.7 h -92.3 c 2.3,15.2 14.7,27.8 35.7,27.8 10.5,0 24.9,-4.4 32.9,-12.1 L 927,156 c -12.3,11.3 -31.9,17.2 -51.2,17.2 -37.7,0 -66.3,-25.5 -66.3,-65.3 z m 64.3,-38.3 c -20.3,0 -29,14.1 -30.3,26.5 h 61.2 C 903.6,84.2 895.4,69.6 873.8,69.6 Z" id="path9009"></path></g></g></g></g></g></svg>